<svg width="325" height="57" fill="none" xmlns="http://www.w3.org/2000/svg"><path d="M88.514 50.127c6.239-6.236 10.137-18.946 3.481-24.94-5.124-4.736-11.418-2.901-16.264 1.934-6.126 6.137-9.997 17.932-3.564 24.36 5.18 5.17 11.64 3.333 16.347-1.354zM69.27 26.154c7.547-7.538 18.799-6.717 25.427-.097 5.987 5.993 8.939 16.289.334 24.891-8.271 8.266-19.634 5.801-25.315.098-6.154-6.138-8.856-16.481-.446-24.892zm132.242 26.868l-.63-8.27c-.028-.629-.086-1.258-.143-1.887l.773 1.75c.943 1.988 3.747 7.606 9.353 9.645a13.93 13.93 0 004.576.812c4.262 0 7.379-2.528 7.379-6.355 0-4.923-4.776-6.496-10.039-8.203-6.493-2.051-11.126-3.827-11.126-10.048 0-5.4 4.49-9.568 12.442-9.568 4.433 0 8.466.956 10.583 1.845l.257 6.97c.029.641.057 1.279.114 1.917l-.772-1.78c-2.259-5.308-6.893-8.065-11.441-8.065-4.633 0-7.637 2.256-7.637 5.74 0 4.308 4.377 6.084 9.783 7.863 5.177 1.708 11.469 3.28 11.469 10.114 0 5.743-4.319 10.597-12.499 10.663-5.463 0-10.183-1.639-12.442-3.143zm54.403-2.896c6.237-6.234 10.165-18.945 3.494-24.94-5.14-4.736-11.406-2.9-16.257 1.935-6.122 6.136-9.991 17.929-3.581 24.36 5.169 5.169 11.666 3.332 16.344-1.355zm-19.231-23.972c7.536-7.54 18.798-6.717 25.411-.099 6.006 5.995 8.951 16.29.346 24.892-8.258 8.267-19.607 5.8-25.324.098-6.151-6.14-8.836-16.483-.433-24.892zM171.837 56.27c2.69-1.957 5.38-3.917 8.07-5.873a2.087 2.087 0 01-2.067-.27c-.793-.628-.764-1.602-.764-1.701V34.114c0-.733-.029-1.517-.085-2.347a42.1 42.1 0 00-.283-2.246l-.17-.909c-.737-3.163-2.096-5.077-3.738-6.184-1.869-1.28-3.88-1.348-4.899-1.365-7.759-.125-14.527 10.443-15.008 11.22a262.253 262.253 0 010-6.638c.028-1.66.028-3.31.057-4.947-2.691 1.96-5.352 3.916-8.042 5.875a2.017 2.017 0 012.038.267c.482.38.68.878.737 1.24v1.538c0 7.229.028 14.458.028 21.688-.028 1.65-.028 3.299-.057 4.95 2.69-1.96 5.38-3.917 8.071-5.876-.708.286-1.501.184-2.067-.27-.793-.628-.765-1.602-.765-1.701V33.735a40.666 40.666 0 013.313-4.228c1.756-2.013 4.814-5.055 7.589-5.465.17-.023.312-.034.453-.04 2.181-.085 3.794.957 4.219 1.255 1.926 1.37 3.455 4.058 3.455 8.999v17.067l-.085 4.947zm152.458-5.536a1.984 1.984 0 01-1.957-.254 1.757 1.757 0 01-.643-1.072V4.728c0-1.577.03-3.151.059-4.728-2.57 1.872-5.14 3.743-7.71 5.612a1.955 1.955 0 011.957.257c.759.602.759 1.534.759 1.627v.996c0 14.522-.029 29.042-.029 43.562h.029c-.029 1.407-.058 2.812-.058 4.216 2.511-1.845 5.052-3.69 7.593-5.536zm-202.797 4.44c-.168-.006-.337-.008-.477-.017a2.692 2.692 0 01-.197-.014l-.084-.006c-.14-.01-.309-.022-.449-.036a4.912 4.912 0 01-.197-.023l-.084-.01c-.14-.018-.281-.035-.421-.054-.084-.011-.168-.026-.253-.04l-.056-.008c-.112-.022-.253-.045-.393-.07-.084-.02-.196-.04-.309-.062-.112-.028-.252-.056-.393-.087-.084-.025-.196-.05-.281-.076-.14-.033-.252-.067-.393-.104-.112-.03-.196-.059-.309-.09-.112-.039-.252-.08-.364-.12-.113-.034-.197-.068-.309-.104-.112-.045-.225-.093-.365-.138l-.028-.014-.253-.1c-.112-.051-.253-.104-.365-.16l-.056-.026a1.444 1.444 0 01-.225-.098c-.056-.02-.084-.042-.14-.065.028 0 .028.003.056.003l.028.003c.113.005.253.005.393.008.225 0 .45-.011.674-.03l.112-.012c.253-.025.478-.059.702-.104.112-.022.253-.048.365-.076l.084-.02c.197-.053.394-.111.618-.187l.084-.031c.337-.12.674-.267 1.011-.433l.084-.056c.197-.095.365-.202.562-.328l.084-.06a7.6 7.6 0 00.87-.673l.197-.168a.552.552 0 00.14-.14 7.794 7.794 0 001.741-2.603l.112.017c.056.014.14.028.225.039.112.014.224.025.337.033l.196.023c.084.008.169.02.253.025.112.009.224.012.309.014l.224.011.225.009c.112 0 .224-.003.337-.006l.196-.002c.085-.003.169-.003.253-.006.112-.006.225-.014.309-.025l.224-.017c.057-.006.141-.011.225-.02.112-.011.225-.028.309-.042l.224-.03a2.32 2.32 0 00.225-.037c.112-.017.197-.037.309-.06l.225-.044c.084-.014.14-.031.224-.05a2.2 2.2 0 00.281-.077l.224-.056c.085-.022.169-.042.225-.064.112-.028.196-.062.281-.093l.224-.073c.085-.025.141-.05.225-.079.112-.036.197-.073.281-.112l.224-.084c.056-.028.141-.059.197-.093.112-.039.196-.084.281-.129l.196-.095a1.4 1.4 0 00.225-.107c.084-.045.196-.096.281-.146l.168-.107c.084-.039.168-.078.224-.12.085-.054.169-.11.253-.169l.197-.123c.084-.04.14-.082.196-.124.113-.067.197-.135.281-.205l.196-.135c.057-.039.113-.076.169-.118.112-.092.225-.19.337-.289l.14-.106c.028-.034.084-.068.113-.104.196-.174.393-.357.561-.54.14-.134.281-.272.421-.415l.113-.137.252-.292.14-.163c.057-.096.141-.191.225-.29l.112-.162c.085-.107.141-.214.225-.32l.112-.14c.085-.155.197-.312.281-.47l.028-.036.253-.444.084-.157.169-.334.084-.182c.056-.11.112-.22.14-.326l.084-.183c.056-.12.113-.241.141-.362l.056-.146.168-.516.029-.057c.056-.154.084-.308.14-.465l.028-.166c.056-.12.084-.242.112-.365l.028-.185c.028-.118.056-.24.056-.363l.057-.174c0-.137.027-.272.056-.407v-.132a3.56 3.56 0 00.056-.536v-.067c.028-.082.028-.163.028-.245v.017c.028.138.056.278.056.416l.028.292c.028.135.028.267.056.401v.3c.028.135.028.267.028.402v.298a1.02 1.02 0 010 .412v.736l-.028.242c0 .227-.028.454-.056.682l-.028.177-.084.508c0 .056 0 .112-.028.168v.101l-.084.419c-.028.072-.028.148-.057.221v.065c-.028.132-.056.264-.112.396 0 .098-.028.193-.056.292a2.02 2.02 0 00-.112.387l-.084.287a2.156 2.156 0 00-.141.395l-.028.082-.084.188c-.028.143-.112.29-.169.432l-.084.222a6.059 6.059 0 01-.281.637l-.056.099c-.084.18-.168.359-.253.536l-.084.143-.056.079c-.084.134-.14.27-.224.404-.029.062-.085.123-.113.185l-.028.056c-.084.124-.168.247-.253.368l-.168.247c-.084.121-.14.239-.253.357l-.168.238c-.084.121-.169.24-.281.357l-.028.04c-.056.058-.084.12-.14.179-.113.13-.225.253-.337.376l-.141.183a7.452 7.452 0 01-.533.541 15.742 15.742 0 01-11.314 4.624l-.141-.002-.084-.003zm-9.377-14.288c.253-.255.533-.488.842-.693a12.134 12.134 0 002.639 4.568c.169.182.309.328.45.469.056.073.14.143.196.216.084.073.168.146.253.236a12.777 12.777 0 004.576 2.627c-.196.3-.449.582-.702.837a5.838 5.838 0 01-8.254 0 5.853 5.853 0 010-8.26zm4.52 3.355c-.084-.07-.14-.145-.225-.227a10.29 10.29 0 01-2.33-4.416v-.006c.056-.017.113-.033.141-.05l.14-.048c.028-.014.084-.028.112-.042.057-.017.113-.028.141-.042l.14-.037c.028-.011.084-.022.112-.033.056-.012.113-.02.141-.029l.14-.03c.056-.009.084-.017.14-.023.029-.008.085-.014.141-.02l.14-.02c.028-.005.085-.01.113-.013.056-.006.112-.009.168-.011l.112-.009c.057-.003.113-.006.141-.006.056-.002.084 0 .14 0l.14.003c.057 0 .085 0 .141.003.028 0 .084.006.14.008l.141.012c.028.005.084.008.112.011a.9.9 0 01.14.023l.14.022c.057.005.085.008.141.017.028.008.084.02.14.034l.141.03c.028.009.084.017.112.026.056.014.084.028.14.044l.141.043c.056.008.084.02.112.03.056.017.084.037.141.057l.14.05c.028.011.056.026.112.04a.645.645 0 00.14.07l.141.061c.028.015.056.026.084.04.056.034.112.067.197.1l.168.102c.084.048.168.104.253.16l.084.067c.14.079.253.166.365.253l.112.11c.028.025.056.056.113.087.14.129.28.269.421.43.028.016.028.03.056.047l.14.171c.085.11.169.222.253.337l.084.126c.028.073.084.15.14.228 0 .022.029.045.029.067l.084.13c.028.052.056.109.084.168 0 .025.028.053.028.078l.056.13.085.165c.028.03.028.062.028.093l.056.14c.028.05.056.101.056.155.028.036.028.072.028.106l.056.124c0 .053.028.106.028.162.028.037.028.074.028.11l.028.146c.028.048.028.096.057.143v.115l.027.152c0 .048.029.093.029.138v.126l.028.123v.834c0 .048-.028.098-.028.146v.132l-.029.138c0 .045.001.092-.027.14a.202.202 0 01-.029.124v.126c-.028.05-.028.104-.056.154 0 .042 0 .085-.028.127l-.028.135c-.028.047-.028.092-.056.137 0 .042-.028.084-.028.126l-.056.118c0 .05-.028.101-.056.149v.017a10.517 10.517 0 01-4.408-2.344c-.169-.155-.309-.281-.421-.41a1.068 1.068 0 01-.197-.2zm14.992.203a4.53 4.53 0 01-.449.42l-.084.077-.141.112c-.084.07-.168.137-.252.205-.028.03-.056.061-.113.09l-.168.123c-.056.05-.14.101-.197.149-.056.03-.084.062-.14.093l-.197.117a6.273 6.273 0 01-.168.121c-.056.031-.112.062-.168.09l-.169.104c-.056.036-.112.073-.196.11a5.31 5.31 0 00-.169.084l-.196.095a4.03 4.03 0 01-.169.09c-.056.028-.14.053-.196.081l-.169.079c-.056.025-.14.053-.196.079a1.216 1.216 0 01-.197.067l-.168.07c-.056.023-.14.048-.197.068-.056.022-.14.042-.196.058l-.197.057a1.033 1.033 0 01-.196.059c-.057.02-.113.033-.169.047l-.196.048c-.085.014-.141.03-.225.048a2.757 2.757 0 01-.196.033l-.169.034c-.084.014-.14.028-.225.04a4.018 4.018 0 01-.196.022l-.169.022-.224.026-.197.014-.196.01a3.706 3.706 0 01-.225.015h-.196l-.169.003c-.084 0-.168 0-.252-.003-.057 0-.113-.006-.197-.008l-.168-.009c-.057-.006-.169-.008-.253-.017l-.028-.003a7.87 7.87 0 00-1.656-6.847l-.309-.354v.006l-.169-.166a3.06 3.06 0 00-.168-.163l.028-.01-.365-.304a7.913 7.913 0 00-6.85-1.665v-.03c0-.077-.028-.152-.028-.228v-1.205l.028-.193v-.203c0-.07.027-.14.027-.213l.029-.194c0-.064 0-.129.028-.193 0-.07 0-.138.028-.205l.028-.188c0-.068.028-.138.028-.205.028-.068.056-.135.056-.203l.056-.19c0-.065.028-.13.028-.194.028-.068.057-.132.085-.197l.028-.188.084-.196c0-.068.028-.132.056-.197l.084-.188c0-.062.028-.123.056-.18.028-.064.056-.129.085-.19l.084-.194c.028-.06.056-.115.056-.174.056-.07.084-.14.112-.21l.085-.164a8.76 8.76 0 01.084-.165c.028-.068.084-.135.112-.202l.112-.169c.028-.053.057-.104.085-.154.028-.07.084-.138.112-.205l.112-.158a.517.517 0 01.112-.148c.028-.073.113-.143.141-.216l.14-.158c.028-.039.028-.078.056-.115.085-.084.169-.168.225-.25l.112-.134c.028-.028.056-.057.056-.085.141-.151.281-.3.422-.446a10.477 10.477 0 017.411-3.063c2.808 0 5.447 1.09 7.412 3.063 4.099 4.082 4.099 10.727 0 14.81zm-24.032 1.65l.028.045v.034a159 159 0 01-.084-.135l-.084-.224-.029-.062-.168-.36a1.115 1.115 0 00-.112-.263v-.034c-.056-.12-.085-.242-.141-.362a1.33 1.33 0 00-.112-.303 1.77 1.77 0 00-.112-.368l-.084-.306c-.028-.127-.085-.253-.113-.38a43.72 43.72 0 01-.084-.305c-.028-.13-.056-.256-.056-.385l-.084-.309c-.028-.132-.029-.264-.057-.393l-.028-.084c0-.076-.028-.149-.028-.222-.028-.135-.028-.272-.056-.41v-.087c-.028-.07-.028-.14-.028-.207-.028-.146-.028-.292-.028-.438l-.028-.096v-.18c0-.151-.028-.303-.028-.485v-.952c.14-4 1.797-7.766 4.632-10.601.169-.177.365-.346.534-.514l.196-.16c.112-.11.225-.219.365-.326l.169-.137.056-.04c.112-.095.224-.188.365-.278.056-.058.14-.115.224-.176.113-.085.225-.169.365-.25.084-.056.169-.113.253-.166.112-.081.225-.16.365-.236l.028-.03c.084-.04.14-.08.196-.118.141-.08.281-.155.422-.23l.056-.043c.056-.028.112-.053.168-.079.169-.095.337-.185.534-.272l.084-.05c.224-.101.421-.197.646-.287.056-.02.084-.039.14-.056l.084-.034c.141-.058.281-.117.421-.168.085-.028.141-.05.225-.076l.056-.022a5 5 0 01.393-.132c.084-.031.197-.06.281-.09.14-.037.253-.076.393-.11.084-.028.197-.053.281-.078.14-.031.253-.062.393-.093l.056-.008c.084-.02.168-.04.253-.056.14-.028.252-.05.393-.076l.112-.02c.056-.008.112-.02.169-.028.168-.028.336-.05.505-.07l.196-.025c.225-.028.449-.048.674-.065.028-.003.084-.006.14-.006l.113-.005c.14-.009.281-.017.421-.02.084-.003.168-.003.225-.003l.084-.002h.196c.056 0 .141 0 .197.002a18.79 18.79 0 011.01.048c.141.011.253.025.422.04l.28.033c.113.017.253.037.394.056l.027.006a7.596 7.596 0 00-.252.014l-.056.003a17.23 17.23 0 00-.534.053l-.14.02c-.141.02-.281.036-.393.059l-.197.03-.337.068-.196.042c-.112.028-.253.056-.365.087l-.168.045a7.597 7.597 0 00-.478.138l-.056.014c-.168.056-.337.112-.505.177l-.141.056c-.14.044-.252.092-.365.143-.056.025-.14.053-.196.078-.084.048-.197.096-.309.146l-.196.087-.337.169-.141.087a3.422 3.422 0 00-.449.255l-.028.017a5.263 5.263 0 00-.477.298l-.141.098a2.68 2.68 0 00-.309.225 2.985 2.985 0 00-.168.123c-.112.076-.197.149-.309.239l-.14.12c-.113.082-.197.169-.309.253l-.14.124a3.639 3.639 0 00-.393.396c-.197.18-.365.373-.562.572l-.084.124-.113.118c-.084.118-.196.236-.28.36-.056.053-.085.109-.141.162l-.112.183c-.084.092-.14.185-.225.28-.028.062-.084.124-.112.186l-.112.193c-.084.09-.141.18-.197.273l-.084.199-.14.202c-.028.09-.085.18-.141.272-.028.07-.056.144-.112.217l-.084.207c-.056.087-.084.177-.141.267l-.084.222-.084.208c-.028.092-.084.185-.112.277l-.085.24-.056.196c-.028.095-.084.194-.112.289a.772.772 0 01-.056.244l-.056.202-.084.292c0 .082-.029.163-.057.245l-.028.202c-.028.1-.028.202-.056.306-.028.078-.028.157-.028.238l-.056.228c0 .095-.028.194-.028.292 0 .078 0 .157-.028.238v.216c-.028.104-.028.208-.028.315v.242l-.028.218v.312c0 .084 0 .169.028.253v.522a.73.73 0 01.028.244l.028.21c.028.107.028.214.028.32.028.085.028.17.056.253v.087a8.04 8.04 0 00-2.583 1.735.69.69 0 00-.14.152l-.169.185a6.908 6.908 0 00-.673.865l-.085.12a4.844 4.844 0 00-.309.534l-.056.099c-.168.317-.308.65-.449.993l-.028.107c-.056.205-.112.416-.196.643v.048c-.028.118-.057.238-.057.325l-.028.04c-.028.224-.084.46-.084.704l-.028.099c0 .233-.028.463-.028.713v.37zm27.654-20.068c-6.991-6.98-18.361-6.98-25.324 0-6.597 6.606-6.991 17.306-.898 24.361l.365-.312-.365.318c.281.331.589.651.898.951.281.298.618.596.955.888 3.341 2.9 7.524 4.334 11.679 4.334 4.604 0 9.209-1.754 12.69-5.222 3.369-3.377 5.222-7.872 5.222-12.659 0-4.787-1.853-9.284-5.222-12.659zM51.038 52.635c-1.269 0-1.958-.682-1.958-1.835 0-4.759 12.028-19.439 12.028-25.756 0-1.838-1.159-3.738-3.393-3.738-5.297 0-15.147 8.968-24.057 20.658.8-1.427 1.49-2.718 2.096-3.94 4.414-8.768 5.242-11.215 5.242-12.98 0-1.838-1.104-3.738-3.393-3.738-3.283 0-8.911 3.738-14.953 9.581-3.338 3.26-6.676 7.068-9.849 11.28 3.586-6.998 7.118-14.61 7.118-17.327 0-1.565-.883-3.534-3.449-3.534-2.317 0-6.4 2.447-11.366 6.93l.552.681c3.062-2.786 5.241-3.942 6.648-3.942 1.159 0 1.766.678 1.766 1.765 0 2.666-4.718 11.93-8.994 19.687v-.002C3.393 49.407 1.683 52.389 0 55.372h5.573c.91-1.612 1.82-3.223 2.703-4.834.497-.863 1.049-1.804 1.6-2.797 4-5.982 8.69-11.825 13.298-16.175 4.359-4.078 7.752-6.726 10.153-6.726 1.269 0 1.737.814 1.737 1.834 0 1.562-1.406 4.825-4.33 10.6l-5.188 9.655v-.002l-3.227 6.03-.91 1.648v.013l-.415.753h5.573c.028-.069.083-.138.11-.21 0-.027.029-.052.056-.082.028-.113.11-.22.138-.334.828-1.6 1.655-3.2 2.455-4.8.414-.79.8-1.548 1.186-2.273 7.89-11.485 18.623-22.832 22.926-22.832 1.214 0 1.766.747 1.766 1.834.055 4.825-12.111 18.757-12.111 25.757 0 1.63.882 3.94 3.807 3.94 2.041 0 5.987-2.379 10.952-6.931l-.551-.679c-2.787 2.582-4.884 3.874-6.263 3.874zm257.557-23.413c1.456-2.334 2.884-4.664 4.341-6.995h-5.856c-1.253 2.104-2.535 4.207-3.787 6.31-4.458 6.232-9.411 12.254-13.635 16.708-4.283 4.475-7.516 7.091-9.847 7.091-1.719 0-2.272-1.1-2.272-2.202 0-4.822 12.236-19.831 12.236-26.028 0-1.585-.874-3.58-3.584-3.58-2.33 0-6.467 2.48-11.42 7.024l.554.687c3.03-2.823 5.244-3.924 6.671-3.924 1.165 0 1.661.618 1.661 1.722 0 5.302-12.324 19.828-12.324 25.544 0 2.753 2.331 4.475 4.691 4.475 3.496 0 8.594-4.061 14.304-10.191a153.54 153.54 0 009.032-10.672c-3.438 6.197-6.352 12.53-6.352 16.802 0 1.651.758 4.06 3.73 4.06 2.068 0 6.205-2.409 11.099-7.023l-.553-.688c-2.826 2.616-4.895 3.857-6.351 3.857-1.224 0-1.865-.757-1.865-2.065 0-2.343 1.602-6.543 4.545-12.19a172.76 172.76 0 014.982-8.722z" fill="#FBCCE8"/></svg>