<svg width="669" height="130" viewBox="0 0 669 130" fill="none" xmlns="http://www.w3.org/2000/svg">
<path d="M182.517 114.997C195.38 100.696 203.445 71.5453 189.695 57.8065C179.126 46.947 166.164 51.1564 156.199 62.2489C143.546 76.3168 135.567 103.356 148.825 118.095C159.492 129.956 172.848 125.746 182.517 114.997ZM142.843 60.0276C158.395 42.7375 181.617 44.616 195.281 59.8083C207.638 73.5471 213.718 97.1445 195.972 116.875C178.928 135.824 155.509 130.175 143.744 117.094C131.091 103.027 125.492 79.3058 142.843 60.0276Z" fill="white"/>
<path d="M415.54 121.638L414.285 102.664C414.174 101.228 414.076 99.7919 413.965 98.3419C414.494 99.6825 415.023 101.023 415.54 102.364C417.471 106.919 423.266 119.791 434.856 124.469C437.797 125.659 440.947 126.289 444.306 126.33C453.041 126.33 459.537 120.543 459.537 111.761C459.537 100.476 449.658 96.8782 438.806 92.9522C425.407 88.2465 415.835 84.1839 415.835 69.9164C415.835 57.5367 425.137 47.9748 441.488 47.9748C450.642 47.9748 458.959 50.1635 463.327 52.2017L463.893 68.1927C463.967 69.6564 464.016 71.1202 464.077 72.5839C463.548 71.2296 463.019 69.8616 462.49 68.5073C457.852 56.3328 448.267 50.0131 438.941 50.0131C429.357 50.0131 423.168 55.1837 423.168 63.1724C423.168 73.0488 432.186 77.1254 443.309 81.2018C454.038 85.1141 467.006 88.7254 467.006 104.388C467.006 117.561 458.123 128.683 441.205 128.847C429.923 128.847 420.203 125.085 415.54 121.638Z" fill="white"/>
<path d="M527.752 114.997C540.615 100.696 548.68 71.5453 534.942 57.8065C524.36 46.947 511.411 51.1564 501.447 62.2489C488.781 76.3168 480.802 103.356 494.059 118.095C504.739 129.956 518.083 125.746 527.752 114.997ZM488.09 60.0276C503.642 42.7375 526.852 44.616 540.516 59.8083C552.873 73.5471 558.953 97.1445 541.219 116.875C524.163 135.824 500.744 130.175 488.991 117.094C476.325 103.027 470.751 79.3058 488.09 60.0276Z" fill="white"/>
<path d="M354.395 129.08C359.933 124.592 365.471 120.105 371.009 115.617C369.581 116.274 367.957 116.041 366.763 115.001C365.114 113.565 365.151 111.321 365.163 111.102C365.163 100.156 365.163 89.2243 365.163 78.2786C365.163 76.6094 365.102 74.8034 364.966 72.9016C364.831 71.0682 364.646 69.358 364.425 67.7572C364.302 67.0594 364.179 66.3616 364.043 65.6638C362.542 58.4123 359.711 54.0341 356.352 51.4892C352.463 48.5476 348.328 48.397 346.236 48.356C330.251 48.0687 316.271 72.2996 315.274 74.0782C315.25 69.0569 315.25 63.9947 315.299 58.8639C315.323 55.0603 315.36 51.2703 315.422 47.5214C309.884 52.0091 304.346 56.4969 298.809 60.9846C300.236 60.3279 301.848 60.5605 303.054 61.6003C304.039 62.476 304.408 63.6115 304.556 64.4462V67.9761C304.58 84.5451 304.605 101.128 304.629 117.71C304.58 121.487 304.531 125.263 304.494 129.053C310.032 124.565 315.57 120.064 321.107 115.576C319.68 116.233 318.055 116 316.862 114.96C315.213 113.524 315.262 111.294 315.274 111.061C315.274 110.24 315.274 109.419 315.274 108.598C315.274 98.4734 315.274 88.3623 315.274 78.2376C315.274 77.964 315.274 77.6903 315.274 77.4167C317.821 73.3395 320.221 70.0968 322.104 67.7161C325.759 63.1052 332.035 56.1274 337.782 55.1834C338.139 55.1286 338.422 55.115 338.693 55.1013C343.197 54.9098 346.507 57.2905 347.393 57.9746C351.38 61.1214 354.518 67.2783 354.518 78.6071V117.738C354.469 121.528 354.432 125.304 354.395 129.08Z" fill="white"/>
<path d="M668.78 116.386C667.435 117 665.889 116.791 664.771 115.799C663.916 115.058 663.552 114.108 663.388 113.34C663.401 79.2029 663.401 45.0523 663.401 10.9017C663.439 7.28261 663.476 3.67757 663.514 0.0585022C658.223 4.34828 652.919 8.63801 647.641 12.9278C648.998 12.299 650.556 12.5226 651.7 13.5147C653.258 14.898 653.221 17.036 653.221 17.2456C653.221 18.0141 653.221 18.7687 653.221 19.5372C653.221 52.8215 653.221 86.1197 653.208 119.418H653.221C653.171 122.632 653.145 125.86 653.108 129.087C658.323 124.854 663.552 120.62 668.78 116.386Z" fill="white"/>
<path d="M250.525 126.568C250.192 126.555 249.847 126.555 249.526 126.527C249.403 126.527 249.28 126.514 249.157 126.5L248.947 126.486C248.651 126.459 248.355 126.445 248.047 126.404C247.912 126.39 247.764 126.376 247.616 126.349L247.455 126.322C247.16 126.294 246.876 126.253 246.605 126.212C246.42 126.185 246.247 126.143 246.087 126.116L245.976 126.089C245.705 126.048 245.421 125.993 245.15 125.938C244.953 125.897 244.756 125.842 244.522 125.787C244.263 125.732 243.992 125.664 243.72 125.595C243.511 125.54 243.314 125.472 243.104 125.417C242.833 125.335 242.574 125.266 242.315 125.184C242.106 125.116 241.896 125.047 241.686 124.979C241.428 124.883 241.169 124.787 240.91 124.691C240.713 124.622 240.515 124.54 240.306 124.458C240.047 124.362 239.788 124.252 239.541 124.143L239.468 124.115C239.295 124.033 239.122 123.964 238.938 123.882C238.691 123.759 238.444 123.635 238.186 123.512L238.062 123.457C237.914 123.389 237.766 123.306 237.606 123.238C237.508 123.183 237.421 123.128 237.335 123.087C237.36 123.087 237.397 123.087 237.421 123.087L237.495 123.101C237.754 123.101 238.001 123.115 238.321 123.115C238.777 123.115 239.246 123.087 239.726 123.046L239.936 123.019C240.429 122.964 240.922 122.882 241.403 122.786C241.637 122.731 241.896 122.676 242.13 122.608L242.278 122.566C242.71 122.443 243.141 122.306 243.597 122.128L243.782 122.059C244.485 121.785 245.175 121.443 245.828 121.059L246.026 120.935C246.408 120.716 246.778 120.483 247.197 120.182L247.369 120.045C247.985 119.592 248.602 119.072 249.157 118.51L249.539 118.126C249.65 118.016 249.761 117.907 249.859 117.797C251.425 116.056 252.62 114.055 253.434 111.835L253.631 111.863C253.804 111.904 253.976 111.931 254.137 111.958C254.346 111.986 254.568 112.013 254.79 112.041L255.209 112.082C255.394 112.109 255.567 112.123 255.739 112.15C255.961 112.164 256.183 112.178 256.405 112.178L256.836 112.205C256.996 112.205 257.169 112.219 257.329 112.219C257.564 112.219 257.773 112.219 257.995 112.205H258.426C258.587 112.205 258.759 112.192 258.932 112.192C259.141 112.178 259.363 112.15 259.573 112.137L260.004 112.096C260.177 112.082 260.337 112.068 260.51 112.041C260.719 112.027 260.929 111.986 261.126 111.958L261.582 111.876C261.742 111.863 261.915 111.835 262.075 111.794C262.285 111.767 262.482 111.712 262.679 111.671L263.135 111.561C263.296 111.52 263.456 111.492 263.616 111.451C263.826 111.397 264.023 111.328 264.22 111.273L264.664 111.136C264.836 111.095 264.997 111.04 265.157 110.985C265.342 110.931 265.527 110.848 265.724 110.78L266.156 110.615C266.316 110.561 266.476 110.492 266.636 110.437C266.846 110.355 267.031 110.259 267.216 110.177L267.647 109.985C267.807 109.916 267.955 109.848 268.103 109.779C268.288 109.683 268.485 109.574 268.67 109.478L269.077 109.259C269.237 109.176 269.385 109.094 269.533 109.012C269.718 108.902 269.903 108.793 270.075 108.669L270.47 108.436C270.618 108.34 270.766 108.258 270.926 108.148C271.099 108.039 271.284 107.902 271.456 107.765L271.863 107.491C271.999 107.395 272.134 107.299 272.257 107.203C272.467 107.052 272.652 106.888 272.837 106.723L273.219 106.422C273.33 106.339 273.441 106.243 273.552 106.148C273.798 105.942 274.032 105.723 274.267 105.49L274.538 105.243C274.624 105.161 274.71 105.092 274.797 105.01C275.204 104.599 275.598 104.188 275.968 103.776C276.251 103.461 276.523 103.146 276.794 102.817L277.04 102.502C277.225 102.283 277.385 102.063 277.558 101.83L277.842 101.46C278.002 101.241 278.15 101.022 278.298 100.802L278.556 100.419C278.717 100.186 278.877 99.939 279.025 99.6923L279.222 99.3634C279.432 99.0071 279.641 98.6506 279.839 98.2943L279.875 98.2121C280.06 97.8695 280.233 97.5406 280.406 97.1842L280.578 96.8279C280.701 96.5675 280.812 96.3208 280.923 96.0604L281.108 95.6492C281.207 95.4025 281.305 95.1421 281.416 94.8954L281.577 94.4842C281.675 94.2101 281.774 93.9361 281.872 93.6483L281.983 93.3193C282.107 92.9218 282.23 92.5244 282.353 92.1269L282.378 92.0036C282.476 91.6473 282.575 91.291 282.661 90.9347L282.748 90.5508C282.809 90.2767 282.871 90.0026 282.933 89.7148L283.007 89.29C283.056 89.0159 283.105 88.7418 283.167 88.4677L283.216 88.0565C283.265 87.755 283.315 87.4397 283.339 87.1245L283.376 86.8367C283.426 86.4119 283.463 86.0008 283.487 85.5896L283.5 85.4388C283.512 85.2606 283.524 85.0688 283.537 84.8769V84.918C283.586 85.2332 283.623 85.5621 283.66 85.8774L283.722 86.549C283.746 86.8505 283.783 87.1519 283.795 87.4671C283.82 87.7001 283.832 87.9331 283.857 88.1524C283.857 88.4539 283.882 88.7691 283.894 89.0707C283.894 89.3036 283.906 89.5229 283.906 89.7559C283.906 90.0711 283.906 90.3864 283.906 90.7016V90.8523C283.906 91.0168 283.906 91.1814 283.906 91.3458C283.894 91.7022 283.869 92.0447 283.857 92.3874L283.832 92.9356C283.795 93.4564 283.746 93.9772 283.697 94.5117L283.647 94.9092C283.61 95.3066 283.561 95.6903 283.512 96.0878C283.487 96.2111 283.475 96.3345 283.438 96.4579L283.413 96.6909C283.364 97.0198 283.302 97.335 283.253 97.6503C283.216 97.8284 283.179 97.9929 283.142 98.171L283.105 98.3081C283.056 98.6096 282.994 98.9111 282.92 99.2264C282.871 99.4456 282.822 99.6649 282.76 99.8842C282.686 100.186 282.612 100.487 282.526 100.775C282.476 100.994 282.415 101.214 282.353 101.433C282.267 101.734 282.168 102.036 282.082 102.337L282.02 102.529C281.971 102.666 281.934 102.817 281.885 102.954C281.774 103.297 281.651 103.626 281.527 103.955L281.355 104.462C281.157 104.955 280.96 105.435 280.763 105.915L280.652 106.148C280.467 106.559 280.295 106.97 280.097 107.381C280.036 107.491 279.986 107.6 279.937 107.696L279.839 107.888C279.678 108.19 279.53 108.505 279.358 108.806C279.296 108.957 279.21 109.094 279.136 109.231L279.05 109.368C278.902 109.656 278.741 109.93 278.569 110.204C278.458 110.396 278.347 110.588 278.236 110.78C278.063 111.054 277.891 111.328 277.706 111.588C277.595 111.78 277.472 111.958 277.348 112.137C277.164 112.411 276.966 112.685 276.781 112.959L276.707 113.041C276.609 113.178 276.51 113.329 276.412 113.466C276.19 113.754 275.955 114.042 275.746 114.316L275.413 114.741C275.056 115.166 274.71 115.577 274.353 115.974C268.498 122.484 260.744 126.239 252.497 126.568C251.992 126.582 251.499 126.596 251.006 126.582C250.907 126.582 250.821 126.582 250.734 126.582L250.525 126.568ZM231.196 93.8128C231.726 93.2234 232.306 92.6889 232.934 92.2229C234.056 96.1015 235.917 99.6923 238.346 102.694C238.703 103.119 238.987 103.447 239.27 103.776C239.418 103.941 239.566 104.092 239.726 104.27C239.887 104.434 240.047 104.599 240.256 104.804C242.956 107.518 246.186 109.587 249.674 110.835C249.243 111.52 248.762 112.164 248.244 112.753C243.536 117.975 235.893 117.975 231.196 112.753C226.5 107.532 226.5 99.0345 231.196 93.8128ZM240.503 101.501C240.367 101.351 240.22 101.172 240.059 100.981C237.742 98.0888 236.078 94.6076 235.227 90.8523C235.239 90.8523 235.252 90.8523 235.252 90.8523C235.35 90.7975 235.449 90.7702 235.548 90.7291L235.819 90.6193C235.905 90.5919 235.979 90.5509 236.078 90.5235C236.176 90.4824 236.263 90.4549 236.361 90.4275L236.632 90.3452C236.719 90.3178 236.817 90.2905 236.891 90.263C236.99 90.2356 237.088 90.2219 237.187 90.1945L237.471 90.126C237.557 90.1123 237.643 90.0985 237.729 90.0711C237.816 90.0574 237.927 90.0437 238.025 90.03L238.309 89.9889C238.407 89.9752 238.481 89.9616 238.568 89.9479C238.666 89.9479 238.777 89.9341 238.876 89.9341L239.159 89.9068C239.246 89.9068 239.332 89.9067 239.418 89.893C239.517 89.893 239.616 89.893 239.714 89.893L239.998 89.9068C240.096 89.9068 240.17 89.9068 240.256 89.9068C240.367 89.9068 240.466 89.9204 240.552 89.9341L240.848 89.9615C240.947 89.9615 241.021 89.9752 241.107 89.9889C241.206 90.0026 241.317 90.0163 241.415 90.03L241.686 90.0849C241.785 90.0986 241.859 90.1123 241.945 90.126C242.044 90.1397 242.143 90.1671 242.241 90.1945L242.537 90.2767C242.611 90.2904 242.697 90.3042 242.771 90.3316C242.87 90.359 242.968 90.4001 243.067 90.4275L243.375 90.5235C243.437 90.5509 243.511 90.5783 243.572 90.592C243.683 90.6331 243.782 90.688 243.893 90.7291L244.177 90.8387C244.226 90.8798 244.3 90.8935 244.374 90.9347C244.485 90.9895 244.596 91.0442 244.707 91.099L244.965 91.2361C245.027 91.2635 245.089 91.2909 245.15 91.332C245.286 91.4006 245.397 91.4828 245.532 91.5651L245.902 91.7843C246.075 91.9076 246.235 92.031 246.408 92.1544L246.617 92.3052C246.864 92.4971 247.086 92.6889 247.32 92.8945L247.603 93.1412C247.665 93.2097 247.727 93.2645 247.788 93.3467C248.096 93.6345 248.392 93.9635 248.676 94.3335C248.713 94.361 248.737 94.4021 248.774 94.4295L249.058 94.8269C249.243 95.0736 249.415 95.334 249.576 95.6081L249.748 95.8822C249.847 96.0604 249.958 96.2386 250.056 96.4168C250.081 96.4579 250.106 96.5127 250.13 96.5675L250.278 96.869C250.34 96.9924 250.414 97.1157 250.476 97.2527C250.5 97.3076 250.525 97.3761 250.537 97.4309L250.673 97.7188C250.722 97.8558 250.771 97.9792 250.821 98.1025C250.858 98.171 250.87 98.2532 250.907 98.3217L251.006 98.6369C251.055 98.7603 251.092 98.87 251.117 98.9933C251.154 99.0756 251.166 99.1578 251.191 99.24L251.277 99.5141C251.301 99.6375 251.338 99.7745 251.375 99.8978C251.388 99.9801 251.4 100.062 251.425 100.145L251.486 100.487C251.511 100.597 251.536 100.706 251.548 100.816C251.573 100.898 251.585 100.981 251.597 101.077L251.647 101.419C251.647 101.529 251.671 101.638 251.684 101.734C251.696 101.83 251.696 101.94 251.696 102.036L251.721 102.31C251.733 102.433 251.745 102.557 251.758 102.68C251.758 102.762 251.758 102.858 251.758 102.954V103.256C251.758 103.379 251.758 103.502 251.758 103.612C251.758 103.708 251.758 103.804 251.745 103.886L251.721 104.215C251.721 104.338 251.708 104.448 251.708 104.558C251.696 104.654 251.684 104.75 251.671 104.859L251.634 105.174C251.622 105.284 251.61 105.38 251.597 105.49C251.585 105.586 251.56 105.682 251.536 105.777L251.486 106.065C251.474 106.189 251.449 106.298 251.425 106.422C251.4 106.518 251.388 106.613 251.351 106.709L251.277 107.025C251.252 107.134 251.228 107.23 251.203 107.34C251.166 107.436 251.141 107.532 251.104 107.628L251.018 107.902C250.981 108.011 250.944 108.135 250.907 108.244C250.907 108.244 250.907 108.258 250.895 108.272C247.517 107.326 244.386 105.49 241.797 102.899C241.44 102.543 241.156 102.255 240.897 101.967C240.774 101.817 240.639 101.666 240.503 101.501ZM271.444 101.967C271.136 102.296 270.827 102.625 270.519 102.927C270.458 102.995 270.396 103.05 270.334 103.105L270.051 103.365C269.878 103.53 269.718 103.681 269.545 103.831C269.459 103.9 269.385 103.968 269.287 104.037L268.954 104.325C268.818 104.434 268.682 104.558 268.547 104.667C268.436 104.736 268.337 104.804 268.239 104.887L267.869 105.147C267.746 105.243 267.622 105.339 267.487 105.421C267.388 105.503 267.277 105.572 267.166 105.627L266.797 105.873C266.673 105.956 266.538 106.038 266.414 106.12C266.291 106.189 266.168 106.243 266.057 106.312L265.675 106.531C265.539 106.6 265.416 106.668 265.293 106.737C265.169 106.805 265.046 106.86 264.91 106.929L264.528 107.107C264.405 107.162 264.282 107.23 264.146 107.285C264.023 107.34 263.887 107.395 263.764 107.436L263.382 107.6C263.246 107.655 263.111 107.71 262.975 107.765C262.84 107.806 262.716 107.847 262.581 107.888L262.186 108.025C262.063 108.066 261.927 108.121 261.779 108.162C261.656 108.19 261.521 108.231 261.397 108.258L260.99 108.368C260.855 108.409 260.707 108.45 260.571 108.477C260.436 108.505 260.3 108.532 260.177 108.56L259.795 108.642C259.647 108.669 259.487 108.697 259.339 108.724C259.215 108.752 259.08 108.765 258.957 108.779L258.562 108.834C258.414 108.847 258.254 108.875 258.106 108.889C257.958 108.902 257.835 108.916 257.687 108.916L257.317 108.943C257.157 108.957 256.996 108.971 256.836 108.971C256.713 108.984 256.577 108.984 256.442 108.984H256.072C255.912 108.984 255.752 108.984 255.579 108.984C255.456 108.971 255.32 108.971 255.197 108.957L254.839 108.943C254.667 108.93 254.507 108.916 254.322 108.902C254.297 108.902 254.285 108.902 254.26 108.902C255.394 103.352 254.137 97.568 250.833 93.196L250.204 92.3874H250.18C250.081 92.264 249.958 92.1406 249.847 92.0173C249.736 91.8802 249.625 91.7569 249.514 91.6472L249.526 91.6199L248.787 90.9209C244.854 87.2479 239.652 85.8499 234.66 87.1108C234.66 87.0834 234.66 87.0561 234.66 87.0287C234.635 86.8642 234.635 86.6859 234.635 86.5077L234.611 86.0966C234.598 85.9458 234.586 85.7814 234.586 85.6307C234.586 85.4525 234.586 85.2606 234.586 85.0825V84.6988C234.586 84.548 234.586 84.3835 234.586 84.2327C234.598 84.0683 234.611 83.9175 234.623 83.753L234.635 83.3008C234.648 83.15 234.66 82.9993 234.672 82.8485C234.685 82.6841 234.697 82.5195 234.722 82.3551L234.771 81.9165C234.783 81.7657 234.796 81.615 234.82 81.4642C234.845 81.2998 234.87 81.1491 234.894 80.9983L234.956 80.5597C234.98 80.409 235.017 80.2445 235.042 80.0937C235.067 79.9429 235.104 79.7786 235.141 79.6278L235.227 79.1892C235.264 79.0384 235.289 78.8877 235.326 78.7506C235.363 78.5998 235.412 78.4491 235.449 78.2984L235.56 77.8598C235.597 77.7227 235.646 77.5719 235.695 77.4212C235.732 77.2704 235.782 77.1197 235.831 76.9689L235.979 76.5303C236.016 76.3933 236.065 76.2562 236.115 76.1192C236.164 75.9684 236.226 75.8313 236.287 75.6806L236.447 75.2421C236.497 75.1051 236.546 74.9817 236.608 74.8446C236.669 74.6801 236.756 74.5157 236.817 74.3649L236.99 73.9812C237.051 73.8578 237.101 73.7208 237.162 73.6111C237.236 73.4467 237.323 73.2958 237.397 73.1451L237.606 72.7614C237.655 72.638 237.717 72.5146 237.779 72.3913C237.877 72.2405 237.964 72.0898 238.062 71.939L238.272 71.569C238.346 71.4593 238.407 71.3497 238.469 71.2263C238.58 71.0619 238.691 70.8975 238.802 70.733L239.036 70.3767C239.098 70.2808 239.159 70.1985 239.221 70.1163C239.357 69.9107 239.505 69.7188 239.652 69.5406L239.887 69.2254C239.936 69.1569 239.985 69.102 240.035 69.0335C240.306 68.6909 240.589 68.3482 240.897 68.0056C244.965 63.4829 250.389 60.9886 256.171 60.9886C261.94 60.9886 267.364 63.4829 271.444 68.0056C279.863 77.38 279.863 92.6067 271.444 101.967ZM221.889 105.75L221.902 105.86C221.902 105.887 221.902 105.914 221.902 105.928C221.865 105.832 221.815 105.736 221.766 105.627C221.704 105.448 221.63 105.284 221.556 105.106L221.507 104.969C221.396 104.695 221.298 104.421 221.187 104.146C221.113 103.941 221.039 103.749 220.977 103.544L220.952 103.461C220.854 103.187 220.768 102.913 220.669 102.625C220.595 102.392 220.521 102.173 220.447 101.94C220.373 101.652 220.287 101.378 220.2 101.09C220.139 100.857 220.077 100.624 220.016 100.391C219.942 100.103 219.868 99.8156 219.806 99.5278C219.757 99.2948 219.707 99.0619 219.646 98.8152C219.584 98.5274 219.522 98.2258 219.473 97.938C219.424 97.705 219.387 97.472 219.338 97.2253C219.288 96.9238 219.239 96.6223 219.202 96.3208L219.177 96.1289C219.14 95.9644 219.116 95.7999 219.091 95.6218C219.054 95.3202 219.017 95.0051 218.992 94.6898L218.955 94.4842C218.955 94.3335 218.931 94.169 218.906 94.0046C218.894 93.6756 218.857 93.3467 218.845 93.0041L218.832 92.7849C218.82 92.6478 218.807 92.5108 218.807 92.3737C218.783 92.0311 218.783 91.6747 218.77 91.2635L218.746 90.7291C218.746 90.1809 218.746 89.6327 218.77 89.0844C219.066 79.9019 222.456 71.2675 228.287 64.7712C228.657 64.3738 229.027 63.9764 229.396 63.5926L229.778 63.2225C230.037 62.9758 230.296 62.7291 230.567 62.4824C230.666 62.3728 230.789 62.2768 230.913 62.1672L231.011 62.0712C231.258 61.8657 231.504 61.6464 231.751 61.4408C231.899 61.3038 232.071 61.1805 232.244 61.0297C232.478 60.8378 232.737 60.6459 232.971 60.454C233.144 60.3307 233.316 60.2073 233.477 60.084C233.735 59.8921 233.994 59.7139 234.241 59.5358L234.339 59.4672C234.475 59.385 234.611 59.2891 234.746 59.1931C235.018 59.015 235.289 58.8505 235.572 58.6724L235.733 58.5764C235.831 58.5079 235.93 58.4531 236.028 58.3846C236.386 58.179 236.756 57.9734 237.138 57.7679L237.347 57.6581C237.766 57.4251 238.21 57.2059 238.654 57.0003C238.753 56.9455 238.839 56.9044 238.938 56.8632L239.11 56.7947C239.406 56.6577 239.714 56.5207 239.998 56.3973C240.146 56.3425 240.293 56.2877 240.429 56.2328L240.565 56.178C240.836 56.082 241.107 55.9724 241.378 55.8764C241.575 55.8079 241.773 55.7394 241.958 55.6708C242.229 55.5886 242.5 55.4927 242.759 55.4242C242.968 55.3557 243.166 55.3009 243.375 55.246C243.646 55.1638 243.905 55.0953 244.177 55.0268L244.275 54.9994C244.435 54.9583 244.608 54.9171 244.78 54.876C245.064 54.8211 245.348 54.7663 245.631 54.6978L245.828 54.6567C245.952 54.643 246.075 54.6156 246.186 54.5882C246.531 54.5334 246.876 54.4785 247.221 54.4374L247.616 54.3688C248.084 54.314 248.54 54.2729 249.009 54.2318C249.107 54.2181 249.206 54.2181 249.317 54.2181L249.526 54.2045C249.835 54.1771 250.13 54.1633 250.439 54.1496C250.599 54.1496 250.747 54.1496 250.907 54.1496H251.043C251.19 54.1496 251.326 54.1496 251.474 54.1496C251.61 54.1496 251.745 54.1496 251.868 54.1496C252.078 54.1496 252.288 54.1633 252.497 54.177C252.768 54.177 253.04 54.1907 253.311 54.2181C253.52 54.2318 253.73 54.2455 253.952 54.2592C254.211 54.2866 254.482 54.3141 254.79 54.3552C254.987 54.3689 255.184 54.3963 255.382 54.4237C255.665 54.4648 255.936 54.506 256.208 54.5608H256.257C256.097 54.5745 255.936 54.5882 255.751 54.6019L255.616 54.6156C255.258 54.6431 254.889 54.6841 254.519 54.7389L254.211 54.78C253.952 54.8211 253.681 54.8623 253.422 54.9034L253.027 54.9856C252.781 55.0267 252.547 55.0816 252.312 55.1364L251.905 55.2324C251.659 55.3009 251.412 55.3694 251.166 55.438L250.808 55.5338C250.5 55.6297 250.192 55.7258 249.847 55.8491L249.736 55.8902C249.378 56.0136 249.033 56.1368 248.676 56.2876L248.368 56.4246C248.121 56.5206 247.875 56.6303 247.628 56.74C247.505 56.8085 247.381 56.8632 247.246 56.9318C247.036 57.0277 246.802 57.1511 246.58 57.2607L246.198 57.4663C245.976 57.5897 245.754 57.713 245.52 57.85L245.187 58.042C244.879 58.2338 244.583 58.4257 244.275 58.6313L244.201 58.6724C243.868 58.8916 243.548 59.1246 243.24 59.3576L242.944 59.5769C242.722 59.7413 242.5 59.9196 242.29 60.0978C242.179 60.18 242.069 60.2759 241.958 60.3719C241.748 60.55 241.551 60.7145 241.317 60.9201L241.021 61.1942C240.811 61.3861 240.614 61.5779 240.417 61.7835L240.133 62.0576C239.837 62.3591 239.554 62.6606 239.27 62.9621C238.9 63.3869 238.518 63.8255 238.161 64.2915C238.087 64.3738 238.025 64.4697 237.951 64.5656L237.754 64.8397C237.545 65.1138 237.335 65.3742 237.138 65.6621C237.051 65.7854 236.965 65.9088 236.879 66.0321L236.608 66.4569C236.46 66.6625 236.324 66.8818 236.189 67.1011C236.102 67.2382 236.016 67.3752 235.942 67.5259L235.695 67.9645C235.56 68.1701 235.437 68.3758 235.326 68.595C235.252 68.7458 235.165 68.8965 235.104 69.0473L234.857 69.5132C234.759 69.7188 234.66 69.9243 234.561 70.1299C234.487 70.2944 234.413 70.4589 234.339 70.637L234.13 71.1031C234.056 71.3087 233.957 71.5142 233.871 71.7198C233.809 71.8843 233.748 72.0625 233.686 72.2269L233.514 72.7066C233.427 72.9122 233.353 73.1314 233.279 73.337C233.218 73.5289 233.168 73.7071 233.107 73.8852L232.984 74.3375C232.91 74.5568 232.836 74.7761 232.786 75.0091C232.737 75.1873 232.688 75.3791 232.638 75.5573L232.528 76.0232C232.466 76.2562 232.416 76.4755 232.367 76.6948C232.33 76.8867 232.306 77.0648 232.256 77.2567L232.182 77.7227C232.133 77.9557 232.096 78.1886 232.047 78.4216C232.022 78.5998 231.997 78.778 231.985 78.9698L231.911 79.4907C231.886 79.71 231.849 79.9292 231.837 80.1622C231.812 80.3404 231.8 80.5186 231.788 80.6968L231.751 81.2039C231.726 81.4369 231.714 81.6835 231.702 81.9165C231.689 82.1083 231.689 82.2866 231.689 82.4785L231.677 82.9718C231.677 83.2185 231.677 83.4515 231.677 83.6845C231.677 83.8764 231.677 84.0819 231.689 84.2738L231.714 84.7124C231.726 84.9591 231.726 85.2195 231.739 85.4662C231.751 85.6581 231.776 85.8499 231.788 86.0281L231.837 86.5077C231.862 86.7544 231.886 87.0012 231.911 87.2479C231.936 87.4398 231.96 87.6317 231.997 87.8235L232.034 88.0291C230.025 88.9337 228.225 90.2768 226.66 92.0036C226.561 92.1133 226.463 92.2366 226.376 92.3463L226.019 92.7711C225.513 93.4015 225.057 94.0731 224.638 94.7584L224.478 95.0325C224.244 95.4299 224.034 95.8411 223.825 96.2659L223.726 96.4853C223.381 97.2117 223.085 97.9791 222.826 98.7603L222.752 99.007C222.616 99.473 222.481 99.9526 222.358 100.487L222.345 100.597C222.284 100.857 222.222 101.131 222.197 101.337L222.173 101.433C222.087 101.94 222.013 102.488 221.963 103.036L221.939 103.269C221.902 103.804 221.877 104.325 221.877 104.9C221.877 105.188 221.877 105.462 221.889 105.75ZM278.877 59.7413C264.479 43.7336 241.058 43.7336 226.66 59.7413C213.038 74.8857 212.237 99.4182 224.835 115.59L225.575 114.878L224.835 115.604C225.427 116.372 226.056 117.112 226.66 117.783C227.276 118.469 227.942 119.154 228.644 119.825C235.548 126.472 244.152 129.762 252.744 129.762C262.236 129.762 271.727 125.746 278.877 117.783C285.842 110.053 289.675 99.7471 289.675 88.7691C289.675 77.7912 285.842 67.4848 278.877 59.7413Z" fill="white"/>
<path d="M105.27 120.727C102.6 120.727 101.199 119.168 101.199 116.529C101.199 105.618 126.015 71.9669 126.015 57.4729C126.015 53.2614 123.629 48.8995 119.005 48.8995C108.069 48.8995 87.7498 69.4647 69.3894 96.2649C71.0693 92.9969 72.4701 90.0297 73.7295 87.2266C82.8402 67.1264 84.5202 61.5203 84.5202 57.4729C84.5202 53.2614 82.2795 48.8995 77.5199 48.8995C70.7902 48.8995 59.1594 57.4729 46.6801 70.873C39.82 78.3525 32.9501 87.0762 26.3594 96.7298C33.7901 80.6906 41.0795 63.2295 41.0795 56.9943C41.0795 53.4118 39.2592 48.8995 33.9303 48.8995C29.1597 48.8995 20.7599 54.5057 10.5201 64.7883L11.6393 66.347C17.9496 59.9614 22.4399 57.3088 25.3792 57.3088C27.7602 57.3088 29.0195 58.8676 29.0195 61.3699C29.0195 67.482 19.2594 88.717 10.4599 106.506C10.45 106.506 10.45 106.493 10.45 106.493C6.95969 113.33 3.47925 120.166 0 127.017H0.680141H11.0699H11.4794C13.35 123.311 15.2096 119.619 17.0691 115.928C18.0899 113.945 19.1893 111.798 20.3294 109.515C28.6001 95.7999 38.2693 82.3998 47.7994 72.4317C56.7699 63.079 63.7801 56.9943 68.6896 56.9943C71.3498 56.9943 72.3299 58.8676 72.3299 61.2058C72.3299 64.7882 69.3893 72.2677 63.3594 85.5174L52.6695 107.655C52.6597 107.655 52.6597 107.655 52.6597 107.641C50.43 112.249 48.2102 116.871 45.9891 121.479L44.1603 125.253C44.1603 125.267 44.1492 125.267 44.1492 125.28C43.87 125.854 43.5896 126.429 43.3104 127.017H43.9192H54.7098H54.78C54.8501 126.853 54.9202 126.689 54.9891 126.538C55.0297 126.47 55.0604 126.415 55.09 126.347C55.2105 126.087 55.3199 125.841 55.4294 125.581C57.1093 121.903 58.7905 118.238 60.4692 114.574C61.319 112.755 62.1493 111.019 62.9401 109.364C79.1999 83.0289 101.34 56.9943 110.17 56.9943C112.7 56.9943 113.82 58.7172 113.82 61.2058C113.96 72.2677 88.8702 104.223 88.8702 120.262C88.8702 124.009 90.6904 129.3 96.7204 129.3C100.92 129.3 109.05 123.845 119.276 113.412L118.16 111.853C112.41 117.774 108.069 120.727 105.27 120.727Z" fill="white"/>
<path d="M636.382 67.0615C639.373 61.7108 642.364 56.3739 645.342 51.0232H644.751H633.489H633.28C630.671 55.8402 628.049 60.6708 625.44 65.4878C616.245 79.7881 606.079 93.5957 597.315 103.804C588.515 114.068 581.831 120.061 577.019 120.061C573.462 120.061 572.329 117.53 572.329 115.012C572.329 103.955 597.611 69.5383 597.611 55.3338C597.611 51.7074 595.752 47.1231 590.213 47.1231C585.388 47.1231 576.859 52.8022 566.643 63.2298L567.788 64.8035C574.04 58.3308 578.57 55.7992 581.561 55.7992C583.961 55.7992 584.97 57.2223 584.97 59.7539C584.97 71.9057 559.541 105.227 559.541 118.324C559.541 124.646 564.378 128.587 569.203 128.587C576.44 128.587 586.952 119.268 598.731 105.227C604.7 98.1115 611.101 89.7504 617.341 80.746C610.239 94.9642 604.269 109.483 604.269 119.268C604.269 123.058 605.833 128.587 611.95 128.587C616.208 128.587 624.726 123.058 634.806 112.48L633.662 110.907C627.84 116.9 623.581 119.747 620.603 119.747C618.042 119.747 616.775 118.009 616.775 115.012C616.775 109.648 620.036 100.014 626.141 87.0682C629.354 80.2944 632.874 73.5206 636.382 67.0615Z" fill="white"/>
</svg>
