<svg width="325" height="57" viewBox="0 0 325 57" fill="none" xmlns="http://www.w3.org/2000/svg">
<path d="M88.5143 50.1267C94.7525 43.8913 98.6513 31.181 91.9954 25.1879C86.8712 20.4507 80.5772 22.286 75.7314 27.1206C69.6046 33.2585 65.7337 45.0526 72.1668 51.4802C77.3467 56.6517 83.8078 54.8137 88.5143 50.1267ZM69.2704 26.1542C76.8175 18.6155 88.0687 19.437 94.6968 26.0567C100.684 32.0499 103.636 42.3457 95.0308 50.9483C86.7596 59.2139 75.3973 56.7492 69.7161 51.0457C63.5615 44.9078 60.86 34.5646 69.2704 26.1542Z" fill="#FBCCE8"/>
<path d="M201.512 53.0216L200.882 44.7526C200.854 44.1234 200.796 43.4941 200.739 42.8649C200.997 43.4483 201.254 44.0319 201.512 44.6154C202.455 46.6032 205.259 52.2208 210.865 54.2601C212.295 54.775 213.839 55.0552 215.441 55.0724C219.703 55.0724 222.82 52.5439 222.82 48.7169C222.82 43.7944 218.044 42.2213 212.781 40.5137C206.288 38.4629 201.655 36.6867 201.655 30.4657C201.655 25.0655 206.145 20.8981 214.097 20.8981C218.53 20.8981 222.563 21.8535 224.68 22.743L224.937 29.7134C224.966 30.3541 224.994 30.9919 225.051 31.6298C224.794 31.0377 224.537 30.4428 224.279 29.8507C222.02 24.5421 217.386 21.7848 212.838 21.7848C208.205 21.7848 205.201 24.0415 205.201 27.5253C205.201 31.8329 209.578 33.6091 214.984 35.3882C220.161 37.0957 226.453 38.6688 226.453 45.502C226.453 51.2454 222.134 56.0993 213.954 56.165C208.491 56.165 203.771 54.5261 201.512 53.0216Z" fill="#FBCCE8"/>
<path d="M255.915 50.1264C262.152 43.8921 266.08 31.1808 259.409 25.1861C254.269 20.4504 248.003 22.2869 243.152 27.1208C237.03 33.2569 233.161 45.05 239.571 51.4807C244.74 56.6495 251.237 54.813 255.915 50.1264ZM236.684 26.1535C244.22 18.6139 255.482 19.4368 262.095 26.0553C268.101 32.0499 271.046 42.3443 262.441 50.9465C254.183 59.2137 242.834 56.7477 237.117 51.0447C230.966 44.9056 228.281 34.5622 236.684 26.1535Z" fill="#FBCCE8"/>
<path d="M171.837 56.2695C174.527 54.3128 177.217 52.3533 179.907 50.3966C179.228 50.6826 178.435 50.5807 177.84 50.1276C177.047 49.499 177.076 48.5248 177.076 48.4257C177.076 43.6543 177.076 38.8857 177.076 34.1143C177.076 33.3809 177.047 32.5965 176.991 31.7668C176.906 30.9683 176.821 30.2179 176.708 29.5213C176.651 29.2183 176.594 28.9125 176.538 28.6123C175.801 25.4493 174.442 23.5351 172.8 22.4279C170.931 21.1479 168.92 21.08 167.901 21.063C160.142 20.9384 153.374 31.5063 152.893 32.2822C152.865 30.0905 152.865 27.8789 152.893 25.6446C152.921 23.9853 152.921 22.3344 152.95 20.6977C150.259 22.6572 147.598 24.6139 144.908 26.5735C145.587 26.2846 146.38 26.3866 146.946 26.8397C147.428 27.2191 147.626 27.7175 147.683 28.0799V29.6175C147.683 36.8469 147.711 44.0762 147.711 51.3056C147.683 52.9564 147.683 54.6045 147.654 56.2554C150.344 54.2958 153.034 52.3391 155.725 50.3796C155.017 50.6656 154.224 50.5637 153.658 50.1106C152.865 49.4819 152.893 48.5078 152.893 48.4087C152.893 48.0519 152.893 47.6923 152.893 47.3355C152.893 42.9237 152.893 38.5091 152.893 34.0973C152.893 33.9755 152.893 33.8566 152.893 33.7348C154.111 31.9565 155.272 30.5435 156.206 29.5071C157.962 27.4938 161.02 24.4525 163.795 24.0419C163.965 24.0193 164.107 24.008 164.248 24.0023C166.429 23.9174 168.042 24.9594 168.467 25.2567C170.393 26.6273 171.922 29.3146 171.922 34.2559V51.3226C171.894 52.9734 171.865 54.6215 171.837 56.2695Z" fill="#FBCCE8"/>
<path d="M324.295 50.7337C323.652 51.0023 322.893 50.906 322.338 50.4796C321.929 50.1555 321.754 49.7378 321.695 49.4078C321.695 34.5144 321.695 19.621 321.695 4.72756C321.695 3.15061 321.725 1.57659 321.754 -0.000358582C319.184 1.87154 316.614 3.74343 314.044 5.61241C314.716 5.34083 315.446 5.43723 316.001 5.86943C316.76 6.47101 316.76 7.40253 316.76 7.49598C316.76 7.82889 316.76 8.15893 316.76 8.49184C316.76 23.0144 316.731 37.534 316.731 52.0536H316.76C316.731 53.4612 316.702 54.8659 316.702 56.2705C319.213 54.4249 321.754 52.5793 324.295 50.7337Z" fill="#FBCCE8"/>
<path d="M121.498 55.1739C121.33 55.1683 121.161 55.1655 121.021 55.157C120.937 55.1542 120.88 55.1486 120.824 55.143L120.74 55.1374C120.6 55.1261 120.431 55.1149 120.291 55.1009C120.235 55.0953 120.151 55.0868 120.094 55.0784L120.01 55.0672C119.87 55.0503 119.729 55.0335 119.589 55.0138C119.505 55.0026 119.421 54.9885 119.336 54.9745L119.28 54.9661C119.168 54.9437 119.027 54.9212 118.887 54.896C118.803 54.8763 118.691 54.8566 118.578 54.8341C118.466 54.8061 118.326 54.778 118.185 54.7471C118.101 54.7219 117.989 54.6966 117.904 54.6713C117.764 54.6376 117.652 54.6039 117.511 54.5674C117.399 54.5365 117.315 54.5084 117.202 54.4776C117.09 54.4383 116.95 54.3962 116.838 54.3569C116.725 54.3232 116.641 54.2895 116.529 54.253C116.417 54.2081 116.304 54.1604 116.164 54.1155L116.136 54.1014C116.051 54.0677 115.967 54.034 115.883 54.0003C115.771 53.9498 115.63 53.8965 115.518 53.8403L115.462 53.815C115.378 53.7842 115.293 53.7504 115.237 53.7167C115.181 53.6971 115.153 53.6746 115.097 53.6522C115.125 53.6522 115.125 53.655 115.153 53.655L115.181 53.6578C115.294 53.6634 115.434 53.6634 115.574 53.6662C115.799 53.6662 116.024 53.655 116.248 53.6353L116.36 53.6241C116.613 53.5989 116.838 53.5652 117.062 53.5202C117.174 53.4978 117.315 53.4725 117.427 53.4444L117.511 53.4248C117.708 53.3714 117.905 53.3125 118.129 53.2367L118.213 53.2058C118.55 53.0851 118.887 52.9391 119.224 52.7735L119.308 52.7173C119.505 52.6219 119.673 52.5151 119.87 52.3888L119.954 52.3299C120.263 52.1277 120.544 51.9031 120.824 51.6561L121.021 51.4876C121.077 51.4427 121.133 51.3978 121.161 51.3472C121.919 50.592 122.509 49.7161 122.902 48.7447L123.014 48.7615C123.07 48.7756 123.154 48.7896 123.239 48.8008C123.351 48.8148 123.463 48.8261 123.576 48.8345L123.772 48.857C123.856 48.8654 123.941 48.8766 124.025 48.8822C124.137 48.8906 124.249 48.8935 124.334 48.8963L124.558 48.9075C124.642 48.9103 124.727 48.9131 124.783 48.9159C124.895 48.9159 125.007 48.9131 125.12 48.9103L125.316 48.9075C125.401 48.9047 125.485 48.9047 125.569 48.9019C125.681 48.8963 125.794 48.8878 125.878 48.8766L126.102 48.8598C126.159 48.8542 126.243 48.8486 126.327 48.8401C126.439 48.8289 126.552 48.812 126.636 48.798L126.86 48.7671C126.945 48.7559 127.029 48.7446 127.085 48.7306C127.197 48.7138 127.282 48.6941 127.394 48.6717L127.619 48.6268C127.703 48.6127 127.759 48.5959 127.843 48.5762C127.955 48.5538 128.04 48.5285 128.124 48.5004L128.348 48.4442C128.433 48.4218 128.517 48.4021 128.573 48.3797C128.685 48.3516 128.769 48.3179 128.854 48.2871L129.078 48.2141C129.163 48.1888 129.219 48.1635 129.303 48.1354C129.415 48.099 129.5 48.0624 129.584 48.0231L129.808 47.9389C129.864 47.9109 129.949 47.88 130.005 47.8463C130.117 47.807 130.201 47.7621 130.286 47.7171L130.482 47.6217C130.566 47.588 130.651 47.5515 130.707 47.515C130.791 47.4701 130.903 47.4195 130.988 47.369L131.156 47.2623C131.24 47.223 131.324 47.1837 131.38 47.1416C131.465 47.0882 131.549 47.0321 131.633 46.9731L131.83 46.8496C131.914 46.8103 131.97 46.7682 132.026 46.7261C132.139 46.6587 132.223 46.5913 132.307 46.5211L132.503 46.3864C132.56 46.3471 132.616 46.3105 132.672 46.2684C132.784 46.1758 132.897 46.0776 133.009 45.9793L133.149 45.8726C133.177 45.8389 133.233 45.8052 133.262 45.7687C133.458 45.5947 133.655 45.4121 133.823 45.2296C133.963 45.0949 134.104 44.9573 134.244 44.8141L134.357 44.6766C134.441 44.5811 134.525 44.4828 134.609 44.3846L134.749 44.2218C134.806 44.1263 134.89 44.0309 134.974 43.9326L135.086 43.7698C135.171 43.6631 135.227 43.5564 135.311 43.4497L135.423 43.3094C135.508 43.1549 135.62 42.9977 135.704 42.8405L135.732 42.804C135.816 42.658 135.901 42.5092 135.985 42.3604L136.069 42.2031C136.125 42.0908 136.181 41.9814 136.238 41.8691L136.322 41.6866C136.378 41.5771 136.434 41.4676 136.462 41.3609L136.546 41.1784C136.602 41.0577 136.659 40.937 136.687 40.8163L136.743 40.6703C136.799 40.499 136.855 40.3278 136.911 40.1537L136.94 40.0975C136.996 39.9431 137.024 39.7887 137.08 39.6315L137.108 39.4658C137.164 39.3451 137.192 39.2244 137.22 39.1009L137.248 38.9156C137.276 38.7976 137.304 38.6769 137.304 38.5534L137.361 38.3794C137.361 38.2418 137.388 38.107 137.417 37.9723V37.8403C137.445 37.6607 137.473 37.4781 137.473 37.3041V37.2367C137.501 37.1553 137.501 37.0739 137.501 36.9925V37.0093C137.529 37.1468 137.557 37.2872 137.557 37.4248L137.585 37.7168C137.613 37.8515 137.613 37.9835 137.641 38.1183C137.641 38.2193 137.641 38.3204 137.641 38.4186C137.669 38.5534 137.669 38.6854 137.669 38.8202C137.669 38.9184 137.669 39.0166 137.669 39.1177C137.697 39.2553 137.697 39.39 137.669 39.5304V39.595C137.669 39.668 137.669 39.741 137.669 39.8111C137.669 39.9656 137.669 40.1172 137.669 40.266L137.641 40.5075C137.641 40.7349 137.613 40.9623 137.585 41.1897L137.557 41.3665C137.529 41.5378 137.501 41.7062 137.473 41.8747C137.473 41.9308 137.473 41.987 137.445 42.0432V42.1442C137.417 42.2846 137.389 42.4221 137.361 42.5625C137.333 42.6355 137.333 42.7113 137.304 42.7843V42.8489C137.276 42.9808 137.248 43.1128 137.192 43.2448C137.192 43.3431 137.164 43.4384 137.136 43.5367C137.08 43.6659 137.052 43.795 137.024 43.9242C136.996 44.0196 136.968 44.1151 136.94 44.2106C136.883 44.3425 136.827 44.4744 136.799 44.6064L136.771 44.6878C136.743 44.7496 136.715 44.8113 136.687 44.8759C136.659 45.0191 136.575 45.1651 136.518 45.3083L136.434 45.5301C136.35 45.7434 136.265 45.9568 136.153 46.1674L136.097 46.2656C136.013 46.4453 135.929 46.625 135.844 46.8019C135.816 46.8496 135.788 46.8973 135.76 46.9451L135.704 47.0237C135.62 47.1584 135.564 47.2932 135.48 47.4279C135.451 47.4897 135.395 47.5515 135.367 47.6132L135.339 47.6694C135.255 47.7929 135.171 47.9164 135.086 48.0372C135.03 48.1214 134.974 48.2028 134.918 48.2843C134.834 48.405 134.778 48.5229 134.665 48.6408C134.609 48.7194 134.553 48.8008 134.497 48.8794C134.413 49.0001 134.328 49.1181 134.216 49.236L134.188 49.2753C134.132 49.3343 134.104 49.396 134.048 49.455C133.935 49.5841 133.823 49.7077 133.711 49.8312L133.57 50.0137C133.402 50.199 133.233 50.3786 133.037 50.5555C130.201 53.3883 126.439 55.0279 122.453 55.1711C122.2 55.1795 121.975 55.1823 121.723 55.1794C121.695 55.1794 121.639 55.1767 121.582 55.1767L121.498 55.1739ZM112.121 40.8864C112.374 40.631 112.654 40.3979 112.963 40.193C113.497 41.8831 114.395 43.4525 115.602 44.7608C115.771 44.9433 115.911 45.0893 116.052 45.2296C116.108 45.3026 116.192 45.3728 116.248 45.4458C116.332 45.5188 116.416 45.5918 116.501 45.6817C117.82 46.8636 119.393 47.7648 121.077 48.3095C120.881 48.6099 120.628 48.8906 120.375 49.1461C118.101 51.423 114.395 51.4258 112.121 49.1461C109.847 46.8692 109.847 43.1661 112.121 40.8864ZM116.641 44.2414C116.557 44.1712 116.501 44.0955 116.416 44.014C115.293 42.7535 114.479 41.2317 114.086 39.5978C114.086 39.5978 114.086 39.595 114.086 39.5922C114.142 39.5754 114.199 39.5585 114.227 39.5416L114.367 39.4939C114.395 39.4799 114.451 39.4659 114.479 39.4518C114.536 39.435 114.592 39.4237 114.62 39.4097L114.76 39.3732C114.788 39.362 114.844 39.3507 114.872 39.3395C114.928 39.3283 114.985 39.3199 115.013 39.3115L115.153 39.2806C115.209 39.2721 115.237 39.2637 115.293 39.2581C115.322 39.2496 115.378 39.2441 115.434 39.2385L115.574 39.2188C115.602 39.2132 115.659 39.2076 115.687 39.2047C115.743 39.1991 115.799 39.1963 115.855 39.1935L115.967 39.1851C116.024 39.1823 116.08 39.1795 116.108 39.1795C116.164 39.1766 116.192 39.1795 116.248 39.1795L116.388 39.1823C116.445 39.1823 116.473 39.1823 116.529 39.1851C116.557 39.1851 116.613 39.1907 116.669 39.1935L116.81 39.2047C116.838 39.2104 116.894 39.2132 116.922 39.216C116.978 39.2216 117.034 39.23 117.062 39.2385L117.202 39.2609C117.259 39.2665 117.287 39.2693 117.343 39.2777C117.371 39.2862 117.427 39.2974 117.483 39.3115L117.624 39.3423C117.652 39.3507 117.708 39.3592 117.736 39.3676C117.792 39.3816 117.82 39.3957 117.876 39.4125L118.017 39.4547C118.073 39.4631 118.101 39.4743 118.129 39.4855C118.185 39.5023 118.213 39.522 118.27 39.5416L118.41 39.5922C118.438 39.6034 118.466 39.6175 118.522 39.6315C118.55 39.654 118.606 39.6792 118.662 39.7017L118.803 39.7634C118.831 39.7775 118.859 39.7887 118.887 39.8028C118.943 39.8365 118.999 39.8701 119.084 39.9038L119.252 40.0049C119.336 40.0526 119.42 40.1087 119.505 40.1649L119.589 40.2323C119.729 40.3109 119.842 40.398 119.954 40.485L120.066 40.5944C120.094 40.6197 120.122 40.6506 120.179 40.6815C120.319 40.8106 120.459 40.951 120.6 41.1111C120.628 41.1279 120.628 41.1419 120.656 41.1588L120.796 41.33C120.881 41.4395 120.965 41.5518 121.049 41.6669L121.133 41.7933C121.161 41.8663 121.217 41.9421 121.273 42.0207C121.273 42.0431 121.302 42.0656 121.302 42.0881L121.386 42.2172C121.414 42.2705 121.442 42.3267 121.47 42.3857C121.47 42.4109 121.498 42.439 121.498 42.4643L121.554 42.5934C121.582 42.6468 121.611 42.7029 121.639 42.759C121.667 42.7899 121.667 42.8208 121.667 42.8517L121.723 42.9921C121.751 43.0426 121.779 43.0932 121.779 43.1465C121.807 43.183 121.807 43.2195 121.807 43.2532L121.863 43.3767C121.863 43.4301 121.891 43.4834 121.891 43.5395C121.919 43.576 121.919 43.6126 121.919 43.6491L121.947 43.795C121.975 43.8428 121.975 43.8905 122.004 43.9382C122.004 43.9775 122.004 44.014 122.004 44.0533L122.031 44.2049C122.031 44.2527 122.06 44.2976 122.06 44.3425C122.06 44.3846 122.06 44.4295 122.06 44.4688L122.088 44.5923C122.088 44.6457 122.088 44.699 122.088 44.7524C122.088 44.7917 122.088 44.8338 122.088 44.8731V45.0078C122.088 45.0612 122.088 45.1117 122.088 45.1623C122.088 45.2016 122.088 45.2409 122.088 45.2802V45.4262C122.088 45.4739 122.06 45.5244 122.06 45.5722C122.06 45.6171 122.06 45.6592 122.06 45.7041L122.031 45.8417C122.031 45.8867 122.032 45.9344 122.004 45.9821C122.004 46.0242 122.003 46.0635 121.975 46.1056V46.2319C121.947 46.2825 121.947 46.3358 121.919 46.3864C121.919 46.4285 121.919 46.4706 121.891 46.5127L121.863 46.6475C121.835 46.6952 121.835 46.7401 121.807 46.785C121.807 46.8271 121.779 46.8692 121.779 46.9113L121.723 47.0293C121.723 47.0798 121.695 47.1303 121.667 47.178C121.667 47.1837 121.667 47.1893 121.667 47.1949C120.038 46.7822 118.522 45.9765 117.259 44.8507C117.09 44.6963 116.95 44.5699 116.838 44.4407C116.753 44.3761 116.697 44.3116 116.641 44.2414ZM131.633 44.4435C131.493 44.5895 131.353 44.7299 131.184 44.8647C131.156 44.8899 131.128 44.9152 131.1 44.9405L130.959 45.0528C130.875 45.123 130.791 45.1904 130.707 45.2578C130.679 45.2886 130.651 45.3195 130.594 45.3476L130.426 45.4711C130.37 45.5217 130.286 45.5722 130.229 45.6199C130.173 45.6508 130.145 45.6816 130.089 45.7125L129.892 45.8305C129.836 45.8726 129.78 45.9119 129.724 45.9512C129.668 45.9821 129.612 46.013 129.556 46.0411L129.387 46.1449C129.331 46.1814 129.275 46.2179 129.191 46.2544C129.134 46.2825 129.078 46.3105 129.022 46.3386L128.826 46.4341C128.77 46.465 128.714 46.4959 128.657 46.5239C128.601 46.552 128.517 46.5773 128.461 46.6054L128.292 46.684C128.236 46.7093 128.152 46.7373 128.096 46.7625C128.04 46.7878 127.983 46.8075 127.899 46.8299L127.731 46.9001C127.675 46.9226 127.591 46.9478 127.534 46.9675C127.478 46.9899 127.394 47.0097 127.338 47.0265L127.141 47.0826C127.085 47.1051 127.029 47.1247 126.945 47.1416C126.888 47.1612 126.832 47.1752 126.776 47.1893L126.58 47.2371C126.495 47.2511 126.439 47.2679 126.355 47.2848C126.299 47.296 126.243 47.3072 126.159 47.3184L125.99 47.3521C125.906 47.3662 125.85 47.3802 125.765 47.3914C125.709 47.3998 125.653 47.4055 125.569 47.4139L125.4 47.4364C125.316 47.4448 125.232 47.456 125.176 47.4616C125.092 47.4672 125.036 47.4728 124.979 47.4757L124.783 47.4869C124.727 47.4925 124.642 47.4981 124.558 47.5009C124.502 47.5009 124.418 47.5009 124.362 47.5009L124.193 47.5038C124.109 47.5038 124.025 47.5038 123.941 47.5009C123.884 47.5009 123.828 47.4953 123.744 47.4925L123.576 47.4841C123.519 47.4785 123.407 47.4756 123.323 47.4672C123.323 47.4672 123.323 47.4672 123.295 47.4644C123.856 45.05 123.239 42.526 121.639 40.6169L121.33 40.2632V40.2688C121.273 40.2127 121.217 40.1565 121.161 40.1031C121.105 40.0442 121.049 39.9909 120.993 39.9403L121.021 39.9291L120.656 39.6259C118.747 38.02 116.22 37.4164 113.806 37.961C113.806 37.9526 113.806 37.9414 113.806 37.9301C113.806 37.8543 113.778 37.7785 113.778 37.7027V37.5202C113.778 37.4529 113.778 37.3855 113.778 37.3181C113.778 37.2395 113.778 37.1609 113.778 37.0794V36.9138C113.778 36.8465 113.778 36.7763 113.778 36.7117C113.778 36.6387 113.778 36.5685 113.778 36.4983L113.806 36.3046C113.806 36.2372 113.806 36.1698 113.806 36.1024C113.806 36.0322 113.833 35.9621 113.833 35.8891L113.862 35.6954C113.862 35.6308 113.862 35.5662 113.89 35.5017C113.89 35.4315 113.89 35.3641 113.918 35.2967L113.946 35.1086C113.946 35.0412 113.974 34.971 113.974 34.9036C114.002 34.8362 114.03 34.7689 114.03 34.7015L114.086 34.5106C114.086 34.446 114.114 34.3815 114.114 34.3169C114.142 34.2495 114.171 34.185 114.199 34.1204L114.227 33.9322C114.255 33.8677 114.283 33.8003 114.311 33.7357C114.311 33.6683 114.339 33.6038 114.367 33.5392L114.451 33.3511C114.451 33.2893 114.479 33.2276 114.507 33.1714C114.535 33.1068 114.563 33.0423 114.592 32.9805L114.676 32.7868C114.704 32.7279 114.732 32.6717 114.732 32.6127C114.788 32.5425 114.816 32.4723 114.844 32.4022L114.929 32.2393C114.957 32.1831 114.985 32.127 115.013 32.0737C115.041 32.0063 115.097 31.9389 115.125 31.8716L115.237 31.7031C115.265 31.6497 115.294 31.5992 115.322 31.5487C115.35 31.4785 115.406 31.4111 115.434 31.3437L115.546 31.1865C115.574 31.1359 115.602 31.0882 115.658 31.0377C115.686 30.9647 115.771 30.8946 115.799 30.8216L115.939 30.6643C115.967 30.625 115.967 30.5857 115.995 30.5492C116.08 30.4649 116.164 30.3808 116.22 30.2993L116.332 30.1646C116.36 30.1365 116.388 30.1084 116.388 30.0803C116.529 29.9287 116.669 29.7799 116.81 29.6339C118.803 27.6574 121.442 26.571 124.221 26.571C127.029 26.571 129.668 27.6602 131.633 29.6339C135.732 33.716 135.732 40.3614 131.633 44.4435ZM107.601 46.0944L107.629 46.1393C107.629 46.1505 107.629 46.1618 107.629 46.173C107.601 46.1281 107.573 46.0832 107.545 46.0382C107.517 45.9653 107.489 45.8894 107.461 45.8136L107.432 45.7519C107.376 45.6312 107.32 45.5132 107.264 45.3925C107.236 45.3055 107.208 45.2185 107.152 45.1286V45.0949C107.096 44.9742 107.067 44.8534 107.011 44.7327C106.983 44.6316 106.955 44.5306 106.899 44.4295C106.871 44.306 106.843 44.1825 106.787 44.0617C106.759 43.9607 106.731 43.8568 106.703 43.7557C106.675 43.6294 106.618 43.5031 106.59 43.3767C106.562 43.2757 106.534 43.1746 106.506 43.0707C106.478 42.9415 106.45 42.8152 106.45 42.686C106.422 42.5822 106.394 42.4811 106.366 42.3772C106.338 42.2453 106.337 42.1133 106.309 41.9842L106.281 41.9C106.281 41.8242 106.253 41.7512 106.253 41.6782C106.225 41.5434 106.225 41.4059 106.197 41.2683V41.1812C106.169 41.1111 106.169 41.0409 106.169 40.9735C106.141 40.8275 106.141 40.6815 106.141 40.5355L106.113 40.44C106.113 40.3783 106.113 40.3193 106.113 40.2604C106.113 40.1088 106.085 39.9572 106.085 39.7747V39.5444C106.085 39.303 106.085 39.0644 106.085 38.823C106.225 34.8223 107.882 31.0574 110.717 28.2218C110.886 28.0449 111.082 27.8765 111.251 27.708L111.447 27.548C111.559 27.4385 111.672 27.329 111.812 27.2223C111.868 27.1774 111.924 27.1297 111.981 27.0847L112.037 27.0454C112.149 26.9499 112.261 26.8573 112.402 26.7675C112.458 26.7085 112.542 26.6524 112.626 26.5906C112.739 26.5064 112.851 26.4221 112.991 26.3407C113.075 26.2846 113.16 26.2285 113.244 26.1751C113.356 26.0937 113.469 26.0151 113.609 25.9393L113.637 25.9084C113.721 25.8691 113.777 25.8298 113.833 25.7905C113.974 25.7118 114.114 25.636 114.255 25.5602L114.311 25.5181C114.367 25.4901 114.423 25.4648 114.479 25.4395C114.648 25.3441 114.816 25.2542 115.013 25.1672L115.097 25.1167C115.321 25.0156 115.518 24.9202 115.743 24.8303C115.799 24.8107 115.827 24.791 115.883 24.7742L115.967 24.7404C116.108 24.6815 116.248 24.6226 116.388 24.572C116.473 24.544 116.529 24.5215 116.613 24.4962L116.669 24.4738C116.782 24.4288 116.922 24.3839 117.062 24.3418C117.146 24.3109 117.259 24.2828 117.343 24.2519C117.483 24.2155 117.596 24.1762 117.736 24.1425C117.82 24.1144 117.933 24.0891 118.017 24.0639C118.157 24.033 118.27 24.0021 118.41 23.9712L118.466 23.9628C118.55 23.9431 118.634 23.9235 118.719 23.9066C118.859 23.8786 118.971 23.8561 119.112 23.8308L119.224 23.8111C119.28 23.8027 119.336 23.7915 119.393 23.7831C119.561 23.755 119.729 23.7326 119.898 23.7129L120.094 23.6876C120.319 23.6596 120.543 23.6399 120.768 23.6231C120.796 23.6203 120.852 23.6174 120.908 23.6174L121.021 23.6118C121.161 23.6034 121.302 23.595 121.442 23.5922C121.526 23.5894 121.61 23.5894 121.667 23.5894L121.751 23.5866C121.807 23.5866 121.891 23.5866 121.947 23.5866C122.003 23.5866 122.088 23.5866 122.144 23.5894C122.256 23.5894 122.34 23.5922 122.453 23.5978C122.593 23.6034 122.705 23.609 122.846 23.6174C122.958 23.6231 123.042 23.6287 123.154 23.6371C123.295 23.6483 123.407 23.6624 123.576 23.6764C123.66 23.6876 123.744 23.6961 123.856 23.7101C123.969 23.727 124.109 23.7466 124.25 23.7663L124.277 23.7719C124.193 23.7747 124.109 23.7803 124.025 23.7859L123.969 23.7887C123.8 23.8028 123.604 23.8224 123.435 23.8421L123.295 23.8617C123.154 23.8814 123.014 23.8982 122.902 23.9207L122.705 23.9515C122.593 23.974 122.481 23.9964 122.368 24.0189L122.172 24.0611C122.06 24.0891 121.919 24.1172 121.807 24.1481L121.639 24.193C121.47 24.2351 121.33 24.2772 121.161 24.3306L121.105 24.3446C120.937 24.4008 120.768 24.4569 120.6 24.5215L120.459 24.5776C120.319 24.6225 120.207 24.6702 120.094 24.7208C120.038 24.746 119.954 24.7741 119.898 24.7994C119.814 24.8471 119.701 24.8949 119.589 24.9454L119.393 25.0324C119.28 25.0886 119.168 25.1448 119.056 25.2009L118.915 25.2879C118.747 25.3665 118.606 25.4508 118.466 25.5434L118.438 25.5602C118.269 25.6557 118.101 25.7568 117.961 25.8578L117.82 25.9561C117.708 26.0291 117.596 26.1049 117.511 26.1807C117.455 26.22 117.399 26.2593 117.343 26.3043C117.231 26.3801 117.146 26.453 117.034 26.5429L116.894 26.6636C116.781 26.745 116.697 26.832 116.585 26.9163L116.445 27.0398C116.304 27.1661 116.164 27.2981 116.052 27.4357C115.855 27.6154 115.687 27.8091 115.49 28.0084C115.462 28.0477 115.434 28.0898 115.406 28.1319L115.293 28.2498C115.209 28.3678 115.097 28.4857 115.013 28.6092C114.957 28.6625 114.928 28.7187 114.872 28.7721L114.76 28.9545C114.676 29.0472 114.62 29.1398 114.535 29.2353C114.507 29.297 114.451 29.3588 114.423 29.4205L114.311 29.6143C114.227 29.7042 114.17 29.794 114.114 29.8866C114.086 29.9512 114.058 30.0186 114.03 30.086L113.89 30.2881C113.862 30.3779 113.805 30.4678 113.749 30.5604C113.721 30.6306 113.693 30.7036 113.637 30.7766L113.553 30.9843C113.497 31.0714 113.469 31.1612 113.412 31.251C113.384 31.324 113.356 31.397 113.328 31.4729L113.244 31.6806C113.216 31.7733 113.16 31.8659 113.132 31.9585C113.104 32.0372 113.076 32.1186 113.047 32.1972L112.991 32.3937C112.963 32.4892 112.907 32.5875 112.879 32.6829C112.879 32.7643 112.851 32.8458 112.823 32.9272L112.767 33.1293C112.739 33.2276 112.711 33.3258 112.683 33.4212C112.683 33.5027 112.654 33.5841 112.626 33.6655L112.598 33.8677C112.57 33.9687 112.57 34.0698 112.542 34.1737C112.514 34.2523 112.514 34.3309 112.514 34.4123L112.458 34.6397C112.458 34.7352 112.43 34.8335 112.43 34.9317C112.43 35.0103 112.43 35.089 112.402 35.1704V35.3865C112.374 35.4904 112.374 35.5943 112.374 35.701C112.374 35.7796 112.374 35.861 112.374 35.9425L112.346 36.1614C112.346 36.2653 112.346 36.3692 112.346 36.473C112.346 36.5573 112.346 36.6415 112.374 36.7257V36.9167C112.374 37.0261 112.374 37.1356 112.374 37.2479C112.402 37.3293 112.402 37.4107 112.402 37.4921L112.43 37.7027C112.458 37.8094 112.458 37.9161 112.458 38.0228C112.486 38.107 112.486 38.1912 112.514 38.2754V38.3625C111.56 38.7612 110.689 39.3423 109.931 40.0975C109.875 40.148 109.819 40.1986 109.791 40.2491L109.622 40.4345C109.37 40.7096 109.145 41.0015 108.949 41.2991L108.864 41.4199C108.752 41.594 108.64 41.7736 108.555 41.9533L108.499 42.0516C108.331 42.3688 108.191 42.7029 108.05 43.0454L108.022 43.1521C107.966 43.3571 107.91 43.5676 107.826 43.795V43.8428C107.798 43.9607 107.769 44.0814 107.769 44.1684L107.741 44.2077C107.713 44.4323 107.657 44.6682 107.657 44.9124L107.629 45.0107C107.629 45.2437 107.601 45.4739 107.601 45.7238C107.601 45.8473 107.601 45.9709 107.601 46.0944ZM135.255 26.0263C128.264 19.0468 116.894 19.0468 109.931 26.0263C103.334 32.6324 102.94 43.3318 109.033 50.3871L109.398 50.0754L109.033 50.3927C109.314 50.724 109.622 51.044 109.931 51.3444C110.212 51.642 110.549 51.9396 110.886 52.2316C114.227 55.1317 118.41 56.5664 122.565 56.5664C127.169 56.5664 131.774 54.8117 135.255 51.3444C138.624 47.967 140.477 43.4721 140.477 38.6853C140.477 33.8985 138.624 29.4009 135.255 26.0263Z" fill="#FBCCE8"/>
<path d="M51.0381 52.6347C49.7691 52.6347 49.0795 51.9533 49.0795 50.8001C49.0795 46.0411 61.1078 31.3614 61.1078 25.0437C61.1078 23.2064 59.9491 21.3056 57.7145 21.3056C52.4176 21.3056 42.5685 30.2745 33.6576 41.9636C34.4576 40.5373 35.1472 39.2461 35.7542 38.024C40.1683 29.2565 40.9959 26.8094 40.9959 25.0437C40.9959 23.2064 39.8924 21.3056 37.6026 21.3056C34.3196 21.3056 28.6916 25.0438 22.6498 30.887C19.3116 34.1479 15.9737 37.955 12.801 42.1677C16.3875 35.1686 19.9187 27.557 19.9187 24.8396C19.9187 23.2753 19.0359 21.3056 16.4702 21.3056C14.1528 21.3056 10.0697 23.7526 5.10381 28.2357L5.65557 28.9171C8.71786 26.1307 10.8972 24.9748 12.3042 24.9748C13.4629 24.9748 14.07 25.6535 14.07 26.7405C14.07 29.4055 9.3525 38.6695 5.07633 46.4273V46.4246C3.39345 49.4069 1.68288 52.3892 0 55.3715H0.331112H5.37969H5.57286C6.48327 53.7603 7.39363 52.1492 8.27645 50.538C8.77304 49.6745 9.32475 48.7337 9.87651 47.7405C13.8768 41.7594 18.5668 35.9163 23.1741 31.5656C27.533 27.4881 30.9263 24.8396 33.3265 24.8396C34.5955 24.8396 35.0644 25.6535 35.0644 26.6742C35.0644 28.2357 33.6577 31.4994 30.7333 37.2736L25.5465 46.9295C25.5465 46.9267 25.5465 46.9267 25.5465 46.9267C24.4706 48.9351 23.3949 50.9463 22.3189 52.9575L21.4083 54.6045C21.4083 54.61 21.4083 54.6128 21.4083 54.6183C21.2704 54.8694 21.1324 55.1204 20.9945 55.3715H21.2981H26.5399H26.5673C26.5949 55.3025 26.6502 55.2335 26.6778 55.1618C26.6778 55.1342 26.7055 55.1094 26.733 55.079C26.7606 54.9659 26.8434 54.8583 26.871 54.7452C27.6986 53.1451 28.5261 51.5449 29.3262 49.9448C29.74 49.1558 30.1262 48.3971 30.5124 47.6716C38.4026 36.1866 49.1346 24.8396 53.4383 24.8396C54.6522 24.8396 55.2038 25.5873 55.2038 26.6742C55.259 31.4994 43.0928 45.4314 43.0928 52.4305C43.0928 54.061 43.9755 56.3701 46.8999 56.3701C48.9414 56.3701 52.8866 53.9921 57.8524 49.44L57.3007 48.7613C54.5143 51.3435 52.4175 52.6347 51.0381 52.6347Z" fill="#FBCCE8"/>
<path d="M308.595 29.2221C310.051 26.8885 311.479 24.5579 312.936 22.2272H312.644H307.196H307.08C305.827 24.3306 304.545 26.4341 303.293 28.5375C298.835 34.7691 293.882 40.7908 289.658 45.2453C285.375 49.7201 282.142 52.3363 279.811 52.3363C278.092 52.3363 277.539 51.2351 277.539 50.1338C277.539 45.3123 289.775 30.303 289.775 24.1063C289.775 22.5215 288.901 20.5259 286.191 20.5259C283.861 20.5259 279.724 23.0051 274.771 27.5498L275.325 28.2374C278.355 25.4144 280.569 24.3132 281.996 24.3132C283.161 24.3132 283.657 24.9308 283.657 26.0349C283.657 31.3372 271.333 45.8629 271.333 51.5788C271.333 54.3319 273.664 56.0537 276.024 56.0537C279.52 56.0537 284.618 51.9926 290.328 45.8629C293.213 42.7661 296.33 39.1157 299.36 35.1914C295.922 41.3881 293.008 47.7217 293.008 51.9926C293.008 53.6444 293.766 56.0537 296.738 56.0537C298.806 56.0537 302.943 53.6444 307.837 49.0297L307.284 48.3422C304.458 50.9583 302.389 52.1994 300.933 52.1994C299.709 52.1994 299.068 51.4419 299.068 50.1338C299.068 47.7915 300.67 43.5906 303.613 37.9446C305.186 34.9905 306.876 32.0392 308.595 29.2221Z" fill="#FBCCE8"/>
</svg>
