<svg width="669" height="130" fill="none" xmlns="http://www.w3.org/2000/svg"><path d="M182.517 114.997c12.863-14.301 20.928-43.452 7.178-57.19-10.569-10.86-23.531-6.65-33.496 4.442-12.653 14.068-20.632 41.107-7.374 55.846 10.667 11.861 24.023 7.651 33.692-3.098zm-39.674-54.97c15.552-17.29 38.774-15.411 52.438-.219 12.357 13.74 18.437 37.336.691 57.067-17.044 18.949-40.463 13.3-52.228.219-12.653-14.067-18.252-37.788-.901-57.066zm272.697 61.611l-1.255-18.974c-.111-1.436-.209-2.872-.32-4.322.529 1.34 1.058 2.681 1.575 4.022 1.931 4.555 7.726 17.427 19.316 22.105 2.941 1.19 6.091 1.82 9.45 1.861 8.735 0 15.231-5.787 15.231-14.569 0-11.285-9.879-14.883-20.731-18.809-13.399-4.706-22.971-8.768-22.971-23.036 0-12.38 9.302-21.941 25.653-21.941 9.154 0 17.471 2.188 21.839 4.227l.566 15.99c.074 1.464.123 2.928.184 4.392-.529-1.354-1.058-2.722-1.587-4.077-4.638-12.174-14.223-18.494-23.549-18.494-9.584 0-15.773 5.17-15.773 13.16 0 9.876 9.018 13.952 20.141 18.029 10.729 3.912 23.697 7.523 23.697 23.186 0 13.173-8.883 24.295-25.801 24.459-11.282 0-21.002-3.762-25.665-7.209zm112.212-6.641c12.863-14.301 20.928-43.452 7.19-57.19-10.582-10.86-23.531-6.65-33.495 4.442-12.666 14.068-20.645 41.107-7.388 55.846 10.68 11.861 24.024 7.651 33.693-3.098zm-39.662-54.97c15.552-17.29 38.762-15.411 52.426-.219 12.357 13.74 18.437 37.336.703 57.067-17.056 18.949-40.475 13.3-52.228.219-12.666-14.067-18.24-37.788-.901-57.066zM354.395 129.08l16.614-13.463a3.903 3.903 0 01-4.246-.616c-1.649-1.436-1.612-3.68-1.6-3.899V78.279c0-1.67-.061-3.476-.197-5.377a81.127 81.127 0 00-.541-5.145c-.123-.698-.246-1.395-.382-2.093-1.501-7.252-4.332-11.63-7.691-14.175-3.889-2.941-8.024-3.092-10.116-3.133-15.985-.287-29.965 23.944-30.962 25.722-.024-5.021-.024-10.083.025-15.214.024-3.804.061-7.594.123-11.343l-16.613 13.464c1.427-.657 3.039-.425 4.245.615.985.876 1.354 2.011 1.502 2.846v3.53l.073 49.734c-.049 3.777-.098 7.553-.135 11.343 5.538-4.488 11.076-8.989 16.613-13.477a3.902 3.902 0 01-4.245-.616c-1.649-1.436-1.6-3.666-1.588-3.899V77.417a106.896 106.896 0 016.83-9.7c3.655-4.612 9.931-11.59 15.678-12.534.357-.054.64-.068.911-.082 4.504-.191 7.814 2.19 8.7 2.874 3.987 3.146 7.125 9.303 7.125 20.632v39.131c-.049 3.79-.086 7.566-.123 11.342zm314.385-12.694c-1.345.614-2.891.405-4.009-.587-.855-.741-1.219-1.691-1.383-2.459.013-34.137.013-68.288.013-102.438l.113-10.843c-5.291 4.29-10.595 8.579-15.873 12.869 1.357-.629 2.915-.405 4.059.587 1.558 1.383 1.521 3.521 1.521 3.73v2.292c0 33.285 0 66.583-.013 99.881h.013c-.05 3.214-.076 6.442-.113 9.669 5.215-4.233 10.444-8.467 15.672-12.701zm-418.255 10.182c-.333-.013-.678-.013-.999-.041a3.27 3.27 0 01-.369-.027l-.21-.014c-.296-.027-.592-.041-.9-.082-.135-.014-.283-.028-.431-.055l-.161-.027a15.328 15.328 0 01-.85-.11c-.185-.027-.358-.069-.518-.096l-.111-.027a17.068 17.068 0 01-.826-.151c-.197-.041-.394-.096-.628-.151-.259-.055-.53-.123-.802-.192-.209-.055-.406-.123-.616-.178-.271-.082-.53-.151-.789-.233l-.629-.205-.776-.288c-.197-.069-.395-.151-.604-.233a13.755 13.755 0 01-.765-.315l-.073-.028c-.173-.082-.346-.151-.53-.233-.247-.123-.494-.247-.752-.37l-.124-.055c-.148-.068-.296-.151-.456-.219-.098-.055-.185-.11-.271-.151h.086l.074.014c.259 0 .506.014.826.014.456 0 .925-.028 1.405-.069l.21-.027c.493-.055.986-.137 1.467-.233.234-.055.493-.11.727-.178l.148-.042c.432-.123.863-.26 1.319-.438l.185-.069a14.335 14.335 0 002.046-1l.198-.124c.382-.219.752-.452 1.171-.753l.172-.137a15.14 15.14 0 001.788-1.535l.382-.384c.111-.11.222-.219.32-.329a18.24 18.24 0 003.575-5.962l.197.028c.173.041.345.068.506.095.209.028.431.055.653.083l.419.041c.185.027.358.041.53.068.222.014.444.028.666.028l.431.027c.16 0 .333.014.493.014.235 0 .444 0 .666-.014h.431c.161 0 .333-.013.506-.013.209-.014.431-.042.641-.055l.431-.041c.173-.014.333-.028.506-.055.209-.014.419-.055.616-.083l.456-.082a3.02 3.02 0 00.493-.082c.21-.027.407-.082.604-.123l.456-.11c.161-.041.321-.069.481-.11.21-.054.407-.123.604-.178l.444-.137c.172-.041.333-.096.493-.151.185-.054.37-.137.567-.205l.432-.165c.16-.054.32-.123.48-.178.21-.082.395-.178.58-.26l.431-.192c.16-.069.308-.137.456-.206.185-.096.382-.205.567-.301l.407-.219c.16-.083.308-.165.456-.247.185-.11.37-.219.542-.343l.395-.233c.148-.096.296-.178.456-.288.173-.109.358-.246.53-.383l.407-.274c.136-.096.271-.192.394-.288.21-.151.395-.315.58-.48l.382-.301c.111-.083.222-.179.333-.274.246-.206.48-.425.715-.658l.271-.247c.086-.082.172-.151.259-.233.407-.411.801-.822 1.171-1.234.283-.315.555-.63.826-.959l.246-.315c.185-.219.345-.439.518-.672l.284-.37c.16-.219.308-.438.456-.658l.258-.383c.161-.233.321-.48.469-.727l.197-.329c.21-.356.419-.712.617-1.069l.036-.082c.185-.343.358-.671.531-1.028l.172-.356c.123-.26.234-.507.345-.768l.185-.41c.099-.248.197-.508.308-.755l.161-.41c.098-.275.197-.549.295-.837l.111-.329.37-1.192.025-.123c.098-.357.197-.713.283-1.07l.087-.383c.061-.274.123-.548.185-.836l.074-.425c.049-.274.098-.548.16-.822l.049-.412c.049-.301.099-.616.123-.931l.037-.288c.05-.425.087-.836.111-1.247l.013-.151.037-.562v.041c.049.315.086.644.123.96l.062.671c.024.301.061.603.073.918.025.233.037.466.062.685 0 .302.025.617.037.919 0 .233.012.452.012.685v1.59c-.012.356-.037.699-.049 1.041l-.025.549c-.037.52-.086 1.041-.135 1.576l-.05.397c-.037.398-.086.781-.135 1.179-.025.123-.037.247-.074.37l-.025.233c-.049.329-.111.644-.16.96l-.111.52-.037.137a13.43 13.43 0 01-.185.918c-.049.22-.098.439-.16.658-.074.302-.148.603-.234.891-.05.219-.111.439-.173.658-.086.301-.185.603-.271.904l-.062.192c-.049.137-.086.288-.135.425a22.22 22.22 0 01-.358 1.001l-.172.507c-.198.493-.395.973-.592 1.453l-.111.233c-.185.411-.357.822-.555 1.233-.061.11-.111.219-.16.315l-.098.192c-.161.302-.309.617-.481.918-.062.151-.148.288-.222.425l-.086.137c-.148.288-.309.562-.481.836l-.333.576c-.173.274-.345.548-.53.808-.111.192-.234.37-.358.549-.184.274-.382.548-.567.822l-.074.082c-.098.137-.197.288-.295.425-.222.288-.457.576-.666.85l-.333.425a48.28 48.28 0 01-1.06 1.233c-5.855 6.51-13.609 10.265-21.856 10.594-.505.014-.998.028-1.491.014h-.272l-.209-.014zm-19.329-32.755c.53-.59 1.11-1.124 1.738-1.59 1.122 3.879 2.983 7.47 5.412 10.471.357.425.641.753.924 1.082.148.165.296.316.456.494.161.164.321.329.53.534 2.7 2.714 5.93 4.783 9.418 6.031a15.03 15.03 0 01-1.43 1.918c-4.708 5.222-12.351 5.222-17.048 0-4.696-5.221-4.696-13.719 0-18.94zm9.307 7.688c-.136-.15-.283-.329-.444-.52-2.317-2.892-3.981-6.373-4.832-10.129h.025c.098-.055.197-.082.296-.123l.271-.11c.086-.027.16-.068.259-.096.098-.04.185-.068.283-.096l.271-.082c.087-.027.185-.055.259-.082.099-.027.197-.041.296-.069l.284-.068c.086-.014.172-.028.258-.055.087-.014.198-.027.296-.041l.284-.041c.098-.014.172-.027.259-.041.098 0 .209-.014.308-.014l.283-.027c.087 0 .173 0 .259-.014h.296l.284.014h.258c.111 0 .21.013.296.027l.296.028c.099 0 .173.013.259.027l.308.041.271.055c.099.014.173.027.259.041.099.014.198.041.296.069l.296.082c.074.013.16.027.234.055.099.027.197.068.296.096l.308.096c.062.027.136.054.197.068.111.041.21.096.321.137l.284.11c.049.04.123.055.197.096l.333.164.258.137c.062.027.124.055.185.096.136.069.247.15.382.233l.37.22c.173.123.333.246.506.37l.209.15c.247.192.469.384.703.59l.283.246c.062.069.124.123.185.206.308.288.604.617.888.987.037.027.061.068.098.096l.284.397c.185.247.357.507.518.781l.172.274c.099.178.21.357.308.535.025.04.05.096.074.15l.148.302c.062.123.136.247.198.384.024.055.049.123.061.178l.136.288c.049.137.098.26.148.384.037.068.049.15.086.219l.099.315c.049.123.086.233.111.356.037.083.049.165.074.247l.086.274c.024.124.061.26.098.384.013.082.025.164.05.247l.061.342c.025.11.05.219.062.329.025.082.037.165.049.261l.05.342c0 .11.024.219.037.315.012.096.012.206.012.302l.025.274.037.37v.932c0 .096 0 .192-.013.274l-.024.329c0 .123-.013.233-.013.343l-.037.301-.037.315-.037.316c-.012.096-.037.192-.061.287l-.05.288c-.012.124-.037.233-.061.357-.025.096-.037.191-.074.287l-.074.316-.074.315c-.037.096-.062.192-.099.288l-.086.274c-.037.109-.074.233-.111.342 0 0 0 .014-.012.028-3.378-.946-6.509-2.782-9.098-5.373a23.95 23.95 0 01-.9-.932c-.123-.15-.258-.301-.394-.466zm30.941.466c-.308.329-.617.658-.925.96-.061.068-.123.123-.185.178l-.283.26c-.173.165-.333.316-.506.466-.086.069-.16.137-.258.206l-.333.288c-.136.109-.272.233-.407.342-.111.069-.21.137-.308.22l-.37.26a4.014 4.014 0 01-.382.274c-.099.082-.21.151-.321.206l-.369.246c-.124.083-.259.165-.383.247-.123.069-.246.123-.357.192l-.382.219c-.136.069-.259.137-.382.206-.124.068-.247.123-.383.192l-.382.178c-.123.055-.246.123-.382.178-.123.055-.259.11-.382.151l-.382.164-.407.165c-.135.041-.259.082-.394.123l-.395.137c-.123.041-.259.096-.407.137-.123.028-.258.069-.382.096l-.407.11a4.53 4.53 0 01-.419.109c-.135.028-.271.055-.394.083l-.382.082-.456.082c-.124.028-.259.041-.382.055l-.395.055c-.148.013-.308.041-.456.055-.148.013-.271.027-.419.027l-.37.027a5.54 5.54 0 01-.481.028c-.123.013-.259.013-.394.013h-.863c-.123-.013-.259-.013-.382-.027l-.358-.014-.517-.041h-.062c1.134-5.55-.123-11.334-3.427-15.706l-.629-.809h-.024c-.099-.123-.222-.246-.333-.37a4.507 4.507 0 00-.333-.37l.012-.027-.739-.7c-3.933-3.672-9.135-5.07-14.127-3.81v-.081c-.025-.165-.025-.343-.025-.521l-.024-.411a5.595 5.595 0 01-.025-.466v-1.398l.037-.48.012-.452.037-.453c.013-.164.025-.329.05-.493l.049-.439a5.83 5.83 0 01.049-.452c.025-.164.05-.315.074-.466l.062-.438c.024-.151.061-.316.086-.466.025-.151.062-.315.099-.466l.086-.439c.037-.15.062-.301.099-.438.037-.151.086-.302.123-.453l.111-.438c.037-.137.086-.288.135-.439.037-.15.087-.301.136-.452l.148-.439c.037-.137.086-.274.136-.41.049-.152.111-.289.172-.44l.16-.438c.05-.137.099-.26.161-.397.061-.165.148-.33.209-.48l.173-.384c.061-.123.111-.26.172-.37.074-.164.161-.315.235-.466l.209-.384c.049-.123.111-.246.173-.37.098-.15.185-.301.283-.452l.21-.37c.074-.11.135-.22.197-.343l.333-.493.234-.356a4.18 4.18 0 01.185-.26c.136-.206.284-.398.431-.576l.235-.316c.049-.068.098-.123.148-.191.271-.343.554-.686.862-1.028 4.068-4.523 9.492-7.017 15.274-7.017 5.769 0 11.193 2.494 15.273 7.017 8.419 9.374 8.419 24.6 0 33.961zm-49.555 3.783l.013.11v.068c-.037-.096-.087-.192-.136-.301-.062-.179-.136-.343-.21-.521l-.049-.137c-.111-.274-.209-.548-.32-.823-.074-.205-.148-.397-.21-.602l-.025-.083c-.098-.274-.184-.548-.283-.836-.074-.233-.148-.452-.222-.685-.074-.288-.16-.562-.247-.85l-.184-.699c-.074-.288-.148-.575-.21-.863a20.416 20.416 0 00-.16-.713c-.062-.288-.124-.59-.173-.877-.049-.233-.086-.466-.135-.713-.05-.301-.099-.603-.136-.904l-.025-.192a6.253 6.253 0 01-.086-.507 21.884 21.884 0 01-.099-.932l-.037-.206c0-.15-.024-.315-.049-.48-.012-.328-.049-.657-.061-1l-.013-.22c-.012-.136-.025-.273-.025-.41-.024-.343-.024-.7-.037-1.11l-.024-.535c0-.548 0-1.096.024-1.645.296-9.182 3.686-17.817 9.517-24.313.37-.397.74-.795 1.109-1.178l.382-.37c.259-.247.518-.494.789-.74.099-.11.222-.206.346-.316l.098-.096c.247-.205.493-.425.74-.63.148-.137.32-.26.493-.411.234-.192.493-.384.727-.576.173-.123.345-.247.506-.37.258-.192.517-.37.764-.548l.098-.069c.136-.082.272-.178.407-.274.272-.178.543-.343.826-.52l.161-.097c.098-.068.197-.123.295-.191.358-.206.728-.412 1.11-.617l.209-.11c.419-.233.863-.452 1.307-.658.099-.054.185-.096.284-.137l.172-.068c.296-.137.604-.274.888-.398.148-.054.295-.11.431-.164l.136-.055c.271-.096.542-.206.813-.302.197-.068.395-.137.58-.205.271-.082.542-.178.801-.247.209-.068.407-.123.616-.178.271-.082.53-.15.802-.22l.098-.027c.16-.04.333-.082.505-.123.284-.055.568-.11.851-.178l.197-.041c.124-.014.247-.041.358-.069.345-.055.69-.11 1.035-.15l.395-.07a47.56 47.56 0 011.393-.136c.098-.014.197-.014.308-.014l.209-.014c.309-.027.604-.04.913-.054h1.429c.21 0 .42.013.629.027.271 0 .543.014.814.041l.641.041c.259.028.53.055.838.096a15.26 15.26 0 011.418.206h.049c-.16.014-.321.027-.506.04l-.135.015c-.358.027-.727.068-1.097.123l-.308.041-.789.123-.395.083c-.246.04-.48.096-.715.15l-.407.096-.739.206-.358.096c-.308.096-.616.192-.961.315l-.111.041a16.43 16.43 0 00-1.06.398l-.308.137a16.74 16.74 0 00-.74.315c-.123.069-.247.123-.382.192-.21.096-.444.22-.666.329l-.382.205c-.222.124-.444.247-.678.384l-.333.192c-.308.192-.604.384-.912.59l-.074.04c-.333.22-.653.453-.961.686l-.296.219c-.222.164-.444.343-.654.52-.111.083-.221.179-.332.275-.21.178-.407.343-.641.548l-.296.274c-.21.192-.407.384-.604.59l-.284.274c-.296.301-.579.603-.863.904-.37.425-.752.863-1.109 1.33-.074.082-.136.178-.21.274l-.197.274c-.209.274-.419.534-.616.822l-.259.37-.271.425a10.72 10.72 0 00-.419.644 4.456 4.456 0 00-.247.425l-.247.439a6.455 6.455 0 00-.369.63c-.074.15-.161.302-.222.452l-.247.466-.296.617a18.18 18.18 0 00-.222.507l-.209.466c-.074.206-.173.411-.259.617-.062.164-.123.343-.185.507l-.172.48c-.087.205-.161.424-.235.63-.061.192-.111.37-.172.548l-.123.453c-.074.219-.148.438-.198.671-.049.178-.098.37-.148.548l-.11.466c-.062.233-.112.453-.161.672-.037.192-.061.37-.111.562l-.074.466c-.049.233-.086.466-.135.699-.025.178-.05.356-.062.548l-.074.52c-.025.22-.062.44-.074.672-.025.178-.037.357-.049.535l-.037.507c-.025.233-.037.48-.049.713-.013.191-.013.37-.013.561l-.012.494v.713c0 .191 0 .397.012.589l.025.438c.012.247.012.507.025.754.012.192.037.384.049.562l.049.48.074.74c.025.192.049.384.086.575l.037.206c-2.009.905-3.809 2.248-5.374 3.975-.099.11-.197.233-.284.342l-.357.425a19 19 0 00-1.381 1.987l-.16.275a18.6 18.6 0 00-.653 1.233l-.099.22a19.945 19.945 0 00-.9 2.274l-.074.247c-.136.466-.271.946-.394 1.48l-.013.11a7.66 7.66 0 00-.148.74l-.024.096a21.24 21.24 0 00-.21 1.603l-.024.233a23.07 23.07 0 00-.05 2.481zm56.988-46.009c-14.398-16.007-37.819-16.007-52.217 0-13.622 15.145-14.423 39.677-1.825 55.849l.74-.712-.74.726a37.674 37.674 0 001.825 2.179 37.466 37.466 0 001.984 2.042c6.904 6.647 15.508 9.937 24.1 9.937 9.492 0 18.983-4.016 26.133-11.979 6.965-7.73 10.798-18.036 10.798-29.014 0-10.978-3.833-21.284-10.798-29.028zM105.27 120.727c-2.67 0-4.071-1.559-4.071-4.198 0-10.911 24.816-44.562 24.816-59.056 0-4.212-2.386-8.573-7.01-8.573-10.936 0-31.255 20.565-49.616 47.365a187.656 187.656 0 004.34-9.038C82.84 67.127 84.52 61.52 84.52 57.473c0-4.212-2.24-8.573-7-8.573-6.73 0-18.36 8.573-30.84 21.973-6.86 7.48-13.73 16.203-20.32 25.857 7.43-16.04 14.72-33.5 14.72-39.736 0-3.582-1.82-8.094-7.15-8.094-4.77 0-13.17 5.606-23.41 15.888l1.12 1.559c6.31-6.386 10.8-9.038 13.74-9.038 2.38 0 3.64 1.559 3.64 4.06 0 6.113-9.76 27.348-18.56 45.137-.01 0-.01-.013-.01-.013A10908.8 10908.8 0 000 127.017h11.48c1.87-3.706 3.73-7.398 5.59-11.089 1.02-1.983 2.12-4.13 3.26-6.413C28.6 95.8 38.27 82.4 47.8 72.432c8.97-9.353 15.98-15.438 20.89-15.438 2.66 0 3.64 1.874 3.64 4.212 0 3.582-2.94 11.062-8.97 24.311l-10.69 22.138c-.01 0-.01 0-.01-.014-2.23 4.608-4.45 9.23-6.67 13.838l-1.83 3.774c0 .014-.01.014-.01.027-.28.574-.56 1.149-.84 1.737h11.47c.07-.164.14-.328.21-.479a1.6 1.6 0 00.1-.191c.12-.26.23-.506.34-.766 1.68-3.678 3.36-7.343 5.04-11.007.849-1.819 1.68-3.555 2.47-5.21 16.26-26.335 38.4-52.37 47.23-52.37 2.53 0 3.65 1.723 3.65 4.212.14 11.062-24.95 43.017-24.95 59.056 0 3.747 1.82 9.038 7.85 9.038 4.2 0 12.33-5.455 22.556-15.888l-1.116-1.559c-5.75 5.921-10.091 8.874-12.89 8.874zm531.112-53.666c2.991-5.35 5.982-10.687 8.96-16.038H633.28c-2.609 4.817-5.231 9.648-7.84 14.465-9.195 14.3-19.361 28.108-28.125 38.316-8.8 10.264-15.484 16.257-20.296 16.257-3.557 0-4.69-2.531-4.69-5.049 0-11.057 25.282-45.474 25.282-59.678 0-3.627-1.859-8.21-7.398-8.21-4.825 0-13.354 5.678-23.57 16.106l1.145 1.574c6.252-6.473 10.782-9.005 13.773-9.005 2.4 0 3.409 1.423 3.409 3.955 0 12.152-25.429 45.473-25.429 58.57 0 6.322 4.837 10.263 9.662 10.263 7.237 0 17.749-9.319 29.528-23.36 5.969-7.115 12.37-15.477 18.61-24.481-7.102 14.218-13.072 28.737-13.072 38.522 0 3.79 1.564 9.319 7.681 9.319 4.258 0 12.776-5.529 22.856-16.107l-1.144-1.573c-5.822 5.993-10.081 8.84-13.059 8.84-2.561 0-3.828-1.738-3.828-4.735 0-5.364 3.261-14.998 9.366-27.944 3.213-6.774 6.733-13.547 10.241-20.007z" fill="#fff"/></svg>