<svg width="446" height="115" fill="none" xmlns="http://www.w3.org/2000/svg"><path d="M104.857 104.6c0-2.859 2.355-5.431 5.478-5.431 1.889 0 3.481.932 4.266 2.719l-1.468.855c-.653-1.259-1.648-1.904-2.891-1.904-1.95 0-3.388 1.593-3.388 3.761 0 2.098 1.345 3.629 3.435 3.629 1.406 0 2.51-.668 2.937-1.857l1.453.878c-.699 1.499-2.292 2.649-4.367 2.649-3.023 0-5.455-2.385-5.455-5.299zm20.094-.07c0-2.168-1.453-3.691-3.318-3.691-1.857 0-3.31 1.523-3.31 3.691s1.453 3.699 3.31 3.699c1.865 0 3.318-1.531 3.318-3.699zm-8.633 0c0-2.859 2.487-5.361 5.315-5.361 2.844 0 5.315 2.502 5.315 5.361 0 2.86-2.471 5.369-5.315 5.369-2.828 0-5.315-2.509-5.315-5.369zm11.967 3.194l1.43-1.073c.925 1.22 1.911 1.694 3.341 1.694 1.64 0 2.572-.575 2.572-1.546 0-.979-1.165-1.624-2.836-1.624h-1.259v-1.546h1.088c1.601 0 2.626-.575 2.626-1.453 0-.863-.948-1.461-2.292-1.461-1.212 0-2.168.435-2.976 1.243l-1.173-1.142c1.002-1.096 2.533-1.647 4.25-1.647 2.572 0 4.165 1.235 4.165 2.719 0 1.119-.831 2.075-2.502 2.409v.047c1.717.163 2.89 1.165 2.89 2.502 0 1.546-1.554 3.053-4.553 3.053-1.888 0-3.598-.505-4.771-2.175zm18.978.315v-7.007h-3.985l-.093 2.05c-.171 3.528-.459 4.429-1.049 4.934v.023h5.127zm-8.04 0h.691c.979 0 1.266-1.025 1.484-4.957l.186-3.674h7.559v8.631h1.453v4.335h-1.763v-2.719h-7.847v2.719h-1.763v-4.335zm19.932-2.67v-.909c-.358.622-.909.738-2.083.886-1.328.163-2.758.303-2.758 1.64 0 .909.575 1.476 1.834 1.476 1.662 0 3.007-.925 3.007-3.093zm-6.745 1.741c0-2.292 2.285-2.79 4.429-3.03 1.671-.195 2.292-.265 2.292-1.477 0-1.243-.668-1.841-2.167-1.841-1.36 0-2.269.505-2.72 1.437l-1.36-.816c.661-1.43 2.285-2.214 4.313-2.214 2.455 0 3.885 1.235 3.885 3.792v6.698h-1.904v-1.764c-.552 1.313-1.764 2.004-3.458 2.004-2.051 0-3.31-1.002-3.31-2.789zm19.254-.523c0-.839-.714-1.508-2.882-1.508h-2.074v3.1h2.237c2.005 0 2.719-.668 2.719-1.592zm-.404-4.273c0-.901-.831-1.43-2.462-1.43h-2.09v2.89h2.043c1.818 0 2.509-.722 2.509-1.46zm-6.487-2.906h3.815c3.309 0 4.63 1.026 4.63 2.626 0 1.189-.932 2.02-2.509 2.261v.046c1.981.195 2.975 1.096 2.975 2.432 0 1.694-1.616 2.882-4.832 2.882h-4.079V99.408zm17.733 5.961v-.909c-.349.622-.901.738-2.067.886-1.336.163-2.766.303-2.766 1.64 0 .909.567 1.476 1.834 1.476 1.671 0 2.999-.925 2.999-3.093zm-6.744 1.741c0-2.292 2.292-2.79 4.437-3.03 1.67-.195 2.292-.265 2.292-1.477 0-1.243-.669-1.841-2.176-1.841-1.36 0-2.261.505-2.712 1.437l-1.36-.816c.669-1.43 2.285-2.214 4.313-2.214 2.455 0 3.885 1.235 3.885 3.792v6.698h-1.904v-1.764c-.544 1.313-1.764 2.004-3.457 2.004-2.052 0-3.318-1.002-3.318-2.789zm16.567-2.815h1.842v-3.341h-1.888c-1.717 0-2.525.459-2.525 1.671 0 1.266 1.088 1.67 2.571 1.67zm1.842 1.554h-1.935c-1.693 0-2.105.497-2.338 1.973l-.07.427c-.117.691-.288 1.127-.497 1.406h-1.981c.256-.45.38-.808.528-1.592l.093-.552c.28-1.616.971-2.284 2.572-2.385v-.047c-1.36-.069-2.859-.947-2.859-2.524 0-2.145 2.26-3.147 5.003-3.147h3.41v10.247h-1.926v-3.806zm9.958-1.249c0-2.859 2.362-5.431 5.478-5.431 1.888 0 3.481.932 4.266 2.719l-1.469.855c-.652-1.259-1.647-1.904-2.89-1.904-1.951 0-3.388 1.593-3.388 3.761 0 2.098 1.336 3.629 3.434 3.629 1.407 0 2.51-.668 2.937-1.857l1.454.878c-.7 1.499-2.293 2.649-4.36 2.649-3.03 0-5.462-2.385-5.462-5.299zm19.424 1.987c0-.839-.715-1.508-2.882-1.508h-2.074v3.1h2.237c2.004 0 2.719-.668 2.719-1.592zm-.404-4.273c0-.901-.831-1.43-2.455-1.43h-2.097v2.89h2.051c1.81 0 2.501-.722 2.501-1.46zm-6.487-2.906h3.822c3.31 0 4.615 1.026 4.615 2.626 0 1.189-.924 2.02-2.494 2.261v.046c1.974.195 2.976 1.096 2.976 2.432 0 1.694-1.616 2.882-4.84 2.882h-4.079V99.408zm19.715 5.122c0-2.168-1.453-3.691-3.318-3.691-1.857 0-3.31 1.523-3.31 3.691s1.453 3.699 3.31 3.699c1.865 0 3.318-1.531 3.318-3.699zm-8.625 0c0-2.859 2.479-5.361 5.307-5.361 2.844 0 5.323 2.502 5.323 5.361 0 2.86-2.479 5.369-5.323 5.369-2.828 0-5.307-2.509-5.307-5.369zm13.553-5.124h.528c.715 0 1.026-.023 1.313-.14v6.581c0 .451 0 .855-.054 1.282.225-.349.481-.738.738-1.095l4.724-6.628h1.841v10.256h-1.841v-6.441c0-.451 0-.855.046-1.282-.209.358-.474.738-.73 1.096l-4.724 6.627h-1.841V99.406zm17.902 0h.528c.715 0 1.026-.023 1.306-.14v6.581c0 .451 0 .855-.047 1.282.218-.349.482-.738.738-1.095l4.724-6.628h1.842v10.256h-1.842v-6.441c0-.451 0-.855.047-1.282-.218.358-.474.738-.738 1.096l-4.724 6.627h-1.834V99.406zm12.02 5.194c0-2.859 2.354-5.431 5.478-5.431 1.888 0 3.481.932 4.273 2.719l-1.484.855c-.645-1.259-1.647-1.904-2.883-1.904-1.958 0-3.387 1.593-3.387 3.761 0 2.098 1.336 3.629 3.434 3.629 1.406 0 2.502-.668 2.929-1.857l1.453.878c-.683 1.499-2.284 2.649-4.359 2.649-3.022 0-5.454-2.385-5.454-5.299zm14.585-3.568h-3.503v-1.624h8.91v1.624h-3.48v8.623h-1.927v-8.623zm15.368 3.498c0-2.168-1.453-3.691-3.31-3.691-1.865 0-3.318 1.523-3.318 3.691s1.453 3.699 3.318 3.699c1.857 0 3.31-1.531 3.31-3.699zm-8.625 0c0-2.859 2.478-5.361 5.315-5.361 2.836 0 5.314 2.502 5.314 5.361 0 2.86-2.478 5.369-5.314 5.369-2.837 0-5.315-2.509-5.315-5.369zm22.092.001c0-2.168-1.5-3.691-3.357-3.691-1.639 0-3.287 1.523-3.287 3.691s1.648 3.698 3.287 3.698c1.857 0 3.357-1.53 3.357-3.698zm-8.532-5.121h.645c.715 0 1.026-.023 1.313-.148v2.479c.599-1.453 1.927-2.572 3.715-2.572 2.556 0 4.872 2.456 4.872 5.362 0 2.913-2.316 5.369-4.872 5.369-1.788 0-3.116-1.127-3.715-2.58v7.343h-1.958V99.41zm13.461-.004h.528c.715 0 1.026-.023 1.314-.14v6.581c0 .451 0 .855-.055 1.282.226-.349.482-.738.746-1.095l4.716-6.628h1.842v10.256h-1.842v-6.441c0-.451 0-.855.047-1.282-.21.358-.474.738-.73 1.096l-4.724 6.627h-1.842V99.406zm12.805 0h.528c.715 0 1.026-.023 1.306-.14v6.581c0 .451 0 .855-.047 1.282.217-.349.482-.738.738-1.095l4.724-6.628h1.834v10.256h-1.834v-6.441c0-.451 0-.855.047-1.282a13.13 13.13 0 01-.746 1.096l-4.716 6.627h-1.834V99.406zM121.678 68.919c8.575-8.575 13.952-26.054 4.785-34.293-7.046-6.511-15.687-3.987-22.33 2.664-8.435 8.436-13.755 24.649-4.917 33.487 7.112 7.112 16.016 4.588 22.462-1.858zm-26.45-32.96c10.368-10.368 25.85-9.242 34.959-.132 8.239 8.238 12.292 22.387.461 34.218-11.362 11.363-26.975 7.975-34.819.132-8.435-8.436-12.168-22.66-.6-34.219zm181.798 36.942l-.836-11.377c-.074-.861-.14-1.722-.213-2.592.352.804.705 1.608 1.049 2.412 1.288 2.731 5.152 10.45 12.878 13.255 1.961.713 4.06 1.09 6.3 1.115 5.823 0 10.154-3.47 10.154-8.735 0-6.767-6.586-8.924-13.821-11.279-8.932-2.821-15.314-5.257-15.314-13.812 0-7.423 6.201-13.157 17.102-13.157 6.103 0 11.648 1.312 14.56 2.535l.377 9.588c.049.878.082 1.755.123 2.633-.353-.812-.705-1.632-1.058-2.444-3.092-7.3-9.482-11.09-15.7-11.09-6.389 0-10.515 3.1-10.515 7.89 0 5.923 6.012 8.367 13.427 10.812 7.153 2.346 15.798 4.511 15.798 13.903 0 7.899-5.922 14.567-17.2 14.666-7.522 0-14.002-2.256-17.111-4.323zm74.809-3.982c8.575-8.575 13.952-26.054 4.793-34.293-7.054-6.511-15.687-3.987-22.33 2.664-8.443 8.436-13.763 24.649-4.924 33.487 7.12 7.112 16.015 4.588 22.461-1.858zm-26.441-32.96c10.368-10.368 25.841-9.242 34.951-.132 8.238 8.238 12.291 22.387.468 34.218-11.37 11.363-26.983 7.975-34.819.132-8.443-8.436-12.159-22.66-.6-34.219zm-89.131 41.405c3.692-2.69 7.384-5.382 11.075-8.073a2.832 2.832 0 01-2.83-.369c-1.099-.861-1.075-2.207-1.067-2.338V46.903a41.19 41.19 0 00-.131-3.225 43.537 43.537 0 00-.361-3.084 69.805 69.805 0 00-.254-1.256c-1.001-4.348-2.888-6.973-5.128-8.499-2.592-1.764-5.349-1.854-6.743-1.879-10.657-.172-19.977 14.357-20.642 15.424-.016-3.011-.016-6.046.017-9.123.016-2.28.041-4.553.082-6.801l-11.076 8.073a2.834 2.834 0 012.83.369c.657.525.903 1.206 1.001 1.706v2.117l.05 29.822c-.033 2.264-.066 4.528-.091 6.8 3.692-2.69 7.384-5.39 11.076-8.08a2.833 2.833 0 01-2.831-.37c-1.099-.86-1.066-2.198-1.058-2.337V46.386a64.654 64.654 0 014.553-5.817c2.437-2.765 6.621-6.949 10.452-7.515.238-.033.427-.04.607-.05 3.003-.114 5.21 1.314 5.801 1.724 2.658 1.887 4.75 5.578 4.75 12.371v23.464c-.033 2.273-.058 4.537-.082 6.801zm209.59-7.612c-.897.369-1.927.243-2.673-.352-.57-.444-.813-1.014-.922-1.475.009-20.469.009-40.946.009-61.424L442.342 0c-3.527 2.572-7.063 5.144-10.582 7.716a2.711 2.711 0 012.706.352c1.039.83 1.014 2.112 1.014 2.237v1.374c0 19.958 0 39.925-.009 59.891h.009c-.034 1.927-.05 3.863-.076 5.798 3.478-2.539 6.963-5.077 10.449-7.616zm-278.836 6.106c-.222-.008-.452-.009-.665-.025-.083 0-.165-.008-.247-.016l-.14-.009c-.197-.016-.394-.024-.6-.049-.09-.008-.189-.016-.287-.033l-.107-.016a10.872 10.872 0 01-.567-.066c-.123-.017-.238-.041-.345-.058l-.074-.016c-.181-.025-.37-.057-.551-.09-.131-.025-.263-.058-.419-.09-.172-.034-.353-.075-.534-.116-.14-.033-.271-.074-.411-.107-.181-.049-.353-.09-.526-.14-.14-.04-.279-.082-.419-.123l-.518-.172c-.131-.041-.263-.09-.402-.14a9.118 9.118 0 01-.51-.189l-.049-.016c-.115-.05-.23-.09-.354-.14a27.456 27.456 0 00-.501-.222l-.082-.033c-.099-.04-.197-.09-.304-.131-.066-.033-.123-.066-.181-.09h.057l.05.007c.172 0 .337.009.55.009.305 0 .617-.017.937-.041l.14-.017c.329-.033.657-.082.978-.14.156-.032.329-.065.485-.106l.098-.025c.288-.074.576-.156.88-.263l.123-.041c.468-.164.929-.37 1.364-.6l.132-.074c.254-.132.501-.271.78-.452l.115-.082a9.816 9.816 0 001.192-.92l.255-.23c.074-.066.148-.132.213-.198a10.785 10.785 0 002.384-3.575l.131.017c.115.024.23.04.337.057l.436.05.279.024c.123.017.238.025.353.041.148.008.296.017.444.017l.288.016c.107 0 .222.008.329.008.156 0 .295 0 .443-.008h.288c.107 0 .222-.008.337-.008.14-.008.288-.025.427-.033l.288-.025c.115-.008.222-.016.337-.032.14-.009.279-.033.411-.05l.304-.049a2.23 2.23 0 00.328-.05c.14-.016.272-.049.403-.073l.304-.066c.107-.025.214-.041.321-.066.139-.033.271-.074.402-.107l.296-.082c.115-.025.222-.057.329-.09.123-.033.247-.082.378-.123l.288-.1c.107-.032.213-.073.32-.106.14-.05.263-.107.386-.156l.288-.115c.107-.041.205-.082.304-.123.123-.058.255-.124.378-.181l.271-.132c.107-.049.206-.098.304-.148.124-.065.247-.131.362-.205l.263-.14c.099-.057.197-.107.304-.172a4.31 4.31 0 00.353-.23l.272-.165c.09-.057.18-.115.263-.172a4.79 4.79 0 00.386-.288l.255-.18c.074-.05.148-.108.221-.165.165-.123.321-.255.477-.395l.181-.148c.057-.049.115-.09.172-.14a18.366 18.366 0 001.332-1.315l.164-.188c.123-.132.23-.263.345-.403l.189-.222c.107-.131.206-.263.304-.394l.173-.23c.107-.14.214-.288.312-.436l.132-.197c.139-.214.279-.427.411-.641l.024-.05c.124-.205.239-.402.354-.616l.115-.213c.082-.157.156-.304.23-.46l.123-.247c.066-.148.132-.304.206-.452l.106-.247c.066-.164.132-.328.198-.501l.074-.197.246-.715.017-.074c.065-.214.131-.427.189-.641l.057-.23c.041-.165.082-.329.123-.502l.05-.254c.033-.165.065-.329.107-.493l.032-.247c.033-.18.066-.37.083-.559l.024-.172c.033-.255.058-.502.074-.748l.008-.09a23.6 23.6 0 00.025-.337v.024c.033.19.058.386.082.575l.041.403c.017.18.041.362.05.55.016.14.024.28.041.412 0 .18.016.37.024.55 0 .14.009.271.009.411v.953c-.009.214-.025.42-.033.625l-.017.329c-.024.312-.057.624-.09.945l-.033.238c-.025.238-.058.468-.09.707-.017.074-.025.148-.05.222l-.016.14c-.033.197-.074.386-.107.575l-.074.312-.025.082c-.032.18-.074.362-.123.55a7.211 7.211 0 01-.107.395 9.243 9.243 0 01-.156.534 7.3 7.3 0 01-.115.395c-.057.18-.123.361-.181.542l-.041.115c-.033.083-.057.173-.09.255-.074.206-.156.403-.238.6l-.116.304c-.131.296-.263.584-.394.871l-.074.14c-.123.246-.238.493-.37.74-.041.065-.074.131-.107.189l-.065.114c-.107.181-.206.37-.321.551-.041.09-.098.173-.148.255l-.057.082a6.603 6.603 0 01-.321.501l-.222.346c-.115.164-.23.328-.353.484-.074.115-.156.222-.238.33-.124.163-.255.328-.378.492l-.05.05c-.065.082-.131.172-.197.254-.148.173-.304.345-.444.51l-.222.255c-.238.254-.468.5-.706.74a21.632 21.632 0 01-14.571 6.352c-.337.008-.666.016-.994.008h-.181l-.14-.008zm-12.886-19.641c.354-.354.74-.674 1.159-.954a17.373 17.373 0 003.608 6.279c.238.255.427.452.616.65.099.098.197.188.304.295.107.099.214.197.354.32a17.262 17.262 0 006.278 3.616 9.16 9.16 0 01-.953 1.15c-3.139 3.132-8.235 3.132-11.366 0-3.131-3.13-3.131-8.225 0-11.356zm6.205 4.61c-.09-.09-.189-.197-.296-.312a14.443 14.443 0 01-3.221-6.074h.016c.066-.032.132-.049.197-.073l.181-.066c.058-.017.107-.041.173-.058a1.6 1.6 0 01.189-.057l.181-.05c.057-.016.123-.032.172-.049.066-.016.132-.025.197-.04l.189-.042c.058-.008.115-.017.173-.033l.197-.025.189-.024c.066-.008.115-.017.173-.025.066 0 .14-.008.205-.008l.189-.017c.058 0 .115 0 .173-.008h.197l.189.008h.173c.074 0 .139.009.197.017l.197.016c.066 0 .115.009.173.017l.205.024.181.033.172.025c.066.008.132.025.198.041l.197.05c.049.008.107.016.156.032.066.017.132.041.197.058l.206.057c.041.017.09.033.131.041.074.025.14.058.214.083l.189.065c.033.025.082.033.131.058l.222.098.173.083a.845.845 0 01.123.057c.091.041.165.09.255.14l.247.131c.115.074.221.148.336.222l.14.09c.165.116.312.23.469.354l.189.148c.041.041.082.074.123.123.205.173.403.37.592.592.024.016.041.041.065.057l.189.239c.124.148.239.304.345.468l.115.165c.066.106.14.213.206.32a.898.898 0 01.049.09l.099.181c.041.074.09.148.131.23a.521.521 0 01.041.107l.091.173c.033.082.066.156.098.23.025.041.033.09.058.131l.066.19c.033.073.057.14.074.213.024.05.033.099.049.148l.058.164c.016.074.041.156.065.23.008.05.017.099.033.148l.041.206c.017.066.033.131.041.197a.81.81 0 01.033.156l.033.206c0 .065.016.131.025.189.008.057.008.123.008.18l.016.165.025.222v.559c0 .057 0 .115-.008.164l-.017.197c0 .074-.008.14-.008.206l-.024.18-.025.19-.025.188a1.2 1.2 0 01-.041.173l-.033.172c-.008.075-.024.14-.041.214-.016.058-.025.115-.049.173l-.049.189-.05.189c-.024.057-.041.115-.066.172l-.057.165c-.025.066-.049.14-.074.205 0 0 0 .008-.008.017a14.276 14.276 0 01-6.065-3.222 15.682 15.682 0 01-.6-.559c-.082-.09-.173-.18-.263-.28zm20.627.28a20.237 20.237 0 01-.739.681l-.189.157c-.116.098-.222.189-.337.279-.058.041-.107.082-.173.123l-.222.173c-.09.066-.181.14-.271.205a1.68 1.68 0 00-.206.132l-.246.156c-.082.057-.164.115-.255.164a1.08 1.08 0 01-.213.123l-.247.149c-.082.049-.173.098-.255.147-.082.042-.164.074-.238.115l-.255.132c-.09.041-.172.082-.255.123-.082.041-.164.074-.254.115l-.255.107c-.082.033-.164.074-.255.107a2.993 2.993 0 01-.255.09l-.254.099-.272.099c-.09.024-.172.049-.263.073l-.263.083c-.082.024-.172.057-.271.082-.082.016-.172.041-.255.057l-.271.066a3.13 3.13 0 01-.279.066c-.09.016-.181.033-.263.05l-.255.049c-.098.016-.205.032-.304.049-.082.016-.172.024-.255.033l-.263.033c-.098.008-.205.024-.304.032-.098.009-.18.017-.279.017l-.247.016a4.155 4.155 0 01-.32.017 2.801 2.801 0 01-.263.008h-.575c-.083-.008-.173-.008-.255-.016l-.238-.009-.346-.024h-.041a10.863 10.863 0 00-2.284-9.418l-.419-.485h-.017c-.066-.074-.148-.148-.222-.222a2.814 2.814 0 00-.222-.222l.009-.016-.494-.42a10.86 10.86 0 00-9.417-2.284v-.05c-.017-.098-.017-.205-.017-.312l-.016-.246c-.008-.09-.017-.19-.017-.28v-.838l.025-.287.008-.272.025-.27c.008-.1.016-.198.033-.297l.033-.263c.008-.09.016-.18.032-.27l.05-.28.041-.263c.016-.09.041-.19.057-.28a3.53 3.53 0 01.066-.279l.058-.263c.024-.09.041-.18.065-.263.025-.09.058-.18.083-.271l.074-.263c.024-.082.057-.173.09-.263.025-.09.058-.18.09-.271l.099-.263c.025-.082.058-.165.09-.247.033-.09.074-.172.115-.263l.107-.263a3.12 3.12 0 01.107-.238c.041-.099.099-.197.14-.288l.115-.23c.041-.074.074-.156.115-.222.049-.098.107-.189.156-.28l.14-.23c.033-.073.074-.147.115-.221.066-.09.123-.18.189-.271l.14-.222a1.8 1.8 0 00.131-.206l.222-.296.156-.213c.041-.058.082-.107.123-.156a3.97 3.97 0 01.288-.346l.156-.188c.033-.042.066-.074.099-.115.18-.206.37-.411.575-.617a14.302 14.302 0 0110.182-4.207 14.33 14.33 0 0110.182 4.207c5.613 5.621 5.613 14.752 0 20.364zm-33.036 2.267l.008.066v.041c-.025-.057-.058-.115-.09-.18-.041-.107-.091-.206-.14-.313l-.033-.082c-.074-.164-.14-.329-.214-.493-.049-.123-.098-.238-.139-.362l-.017-.049c-.065-.164-.123-.329-.189-.501-.049-.14-.098-.271-.148-.411-.049-.173-.106-.337-.164-.51l-.123-.419a11.04 11.04 0 01-.14-.517c-.033-.14-.066-.28-.107-.428a12.332 12.332 0 01-.115-.526c-.033-.14-.057-.28-.09-.427-.033-.18-.066-.362-.091-.542l-.016-.115a3.408 3.408 0 01-.058-.305c-.024-.18-.049-.37-.065-.558l-.025-.124c0-.09-.016-.189-.033-.287-.008-.198-.033-.395-.041-.6l-.008-.132c-.008-.082-.017-.164-.017-.246-.016-.206-.016-.42-.024-.666l-.017-.32c0-.33 0-.658.017-.986a21.683 21.683 0 016.344-14.58c.246-.238.493-.476.74-.706l.254-.222c.173-.148.345-.296.526-.444.066-.066.148-.123.23-.189l.066-.057c.164-.123.329-.255.493-.378.099-.082.214-.156.329-.247.156-.115.329-.23.485-.345.115-.074.23-.148.337-.222.172-.115.345-.222.509-.329l.066-.04c.09-.05.181-.107.271-.165.181-.107.362-.206.551-.312l.107-.058c.065-.041.131-.074.197-.115.238-.123.485-.246.739-.37l.14-.066c.28-.14.575-.27.871-.394a2.04 2.04 0 01.189-.082l.115-.041c.198-.082.403-.165.592-.239.099-.032.197-.065.288-.098l.09-.033c.181-.057.362-.123.542-.18.132-.042.263-.083.387-.124.181-.05.361-.107.534-.148.14-.041.271-.074.411-.107.181-.05.353-.09.534-.131l.066-.017c.107-.024.222-.05.337-.074.189-.033.378-.066.567-.106l.131-.025c.082-.008.165-.025.239-.041.23-.033.46-.066.69-.09l.263-.042c.312-.033.616-.057.928-.082.066-.008.132-.008.206-.008l.14-.008c.205-.017.402-.025.608-.033h.953c.14 0 .279.008.419.016.181 0 .362.008.542.025l.428.024c.172.017.353.033.559.058.131.008.263.025.394.041.189.025.37.05.551.082h.033c-.107.008-.214.017-.337.025l-.091.008c-.238.017-.485.041-.731.074l-.206.025-.526.074-.262.049c-.165.025-.321.058-.477.09l-.271.058-.493.123-.239.058c-.205.057-.411.115-.641.189l-.074.024c-.238.074-.468.148-.706.239l-.206.082c-.164.057-.329.123-.493.189-.082.041-.164.074-.255.115-.139.058-.296.132-.443.197l-.255.123c-.148.075-.296.148-.452.23l-.222.116c-.206.115-.403.23-.608.353l-.05.025c-.222.131-.435.27-.641.41l-.197.132a8.03 8.03 0 00-.435.312c-.074.05-.148.107-.222.165-.14.107-.271.205-.428.328l-.197.165c-.14.115-.271.23-.402.353l-.19.164c-.197.181-.386.362-.575.543-.246.255-.501.518-.739.797-.05.05-.091.107-.14.164l-.132.165c-.139.164-.279.32-.411.493l-.172.222-.181.255a6.02 6.02 0 00-.279.386 2.751 2.751 0 00-.165.255l-.164.263c-.09.123-.173.246-.247.377-.049.09-.106.181-.148.272l-.164.28-.197.369c-.049.099-.099.197-.148.304l-.14.28c-.049.123-.115.246-.172.37-.041.098-.082.205-.124.303l-.115.288c-.057.123-.106.255-.156.378-.041.115-.074.222-.115.329l-.082.27c-.049.132-.099.264-.131.404l-.099.328-.074.28c-.041.14-.074.27-.107.402-.025.115-.041.222-.074.337l-.049.28c-.033.14-.058.28-.091.419a4.594 4.594 0 00-.041.328l-.049.313c-.016.131-.041.263-.049.403a3.811 3.811 0 00-.033.32l-.025.304c-.016.14-.024.288-.033.427-.008.115-.008.222-.008.337l-.008.296v.428c0 .115 0 .238.008.353l.017.263c.008.148.008.304.016.452.008.115.025.23.033.337l.033.287.049.444c.017.115.033.23.058.345l.024.124a10.86 10.86 0 00-3.583 2.383c-.066.066-.131.14-.189.205l-.238.255c-.337.378-.641.78-.921 1.192l-.106.164a10.7 10.7 0 00-.436.74l-.066.131c-.23.436-.427.896-.6 1.364l-.049.148c-.09.28-.181.567-.263.888l-.008.066a4.22 4.22 0 00-.099.443l-.016.058c-.058.304-.107.633-.14.961l-.016.14a12.277 12.277 0 00-.033 1.487zm37.992-27.587c-9.599-9.599-25.213-9.599-34.812 0-9.081 9.08-9.615 23.79-1.216 33.488l.493-.427-.493.435a24.217 24.217 0 002.539 2.531c4.602 3.986 10.339 5.958 16.067 5.958 6.327 0 12.655-2.407 17.422-7.182 4.643-4.635 7.199-10.815 7.199-17.398 0-6.582-2.556-12.762-7.199-17.405zM70.18 72.355c-1.78 0-2.714-.934-2.714-2.517 0-6.543 16.544-26.72 16.544-35.411 0-2.526-1.59-5.141-4.673-5.141-7.29 0-20.837 12.331-33.077 28.401 1.12-1.96 2.053-3.738 2.893-5.42 6.074-12.052 7.194-15.413 7.194-17.84 0-2.526-1.494-5.141-4.667-5.141-4.486 0-12.24 5.14-20.56 13.176-4.573 4.485-9.153 9.716-13.547 15.504 4.954-9.617 9.813-20.087 9.813-23.826 0-2.148-1.213-4.854-4.766-4.854-3.18 0-8.78 3.362-15.607 9.527l.747.935c4.206-3.83 7.2-5.42 9.16-5.42 1.587 0 2.426.935 2.426 2.435 0 3.665-6.506 16.398-12.373 27.065-.006 0-.006-.008-.006-.008C4.64 67.92 2.32 72.02 0 76.127h7.653c1.247-2.222 2.487-4.436 3.726-6.65.68-1.188 1.414-2.476 2.174-3.845 5.514-8.224 11.96-16.259 18.313-22.236 5.98-5.608 10.654-9.256 13.927-9.256 1.773 0 2.427 1.123 2.427 2.525 0 2.148-1.96 6.633-5.98 14.578l-7.127 13.274c-.007 0-.007 0-.007-.008-1.486 2.763-2.966 5.534-4.447 8.297L29.44 75.07c0 .008-.007.008-.007.017-.186.344-.373.688-.56 1.04h7.647c.047-.098.093-.196.14-.286a.924.924 0 00.067-.115c.08-.156.153-.303.226-.46 1.12-2.205 2.24-4.402 3.36-6.6.566-1.09 1.12-2.131 1.647-3.123C52.8 49.751 67.56 34.14 73.447 34.14c1.686 0 2.433 1.033 2.433 2.525.094 6.633-16.633 25.794-16.633 35.412 0 2.246 1.213 5.42 5.233 5.42 2.8 0 8.22-3.272 15.037-9.528l-.743-.935c-3.834 3.55-6.728 5.321-8.594 5.321zm354.074-32.179c1.994-3.208 3.988-6.408 5.974-9.617h-8.041c-1.74 2.889-3.488 5.785-5.227 8.674-6.13 8.575-12.908 16.854-18.75 22.975-5.867 6.154-10.322 9.748-13.531 9.748-2.371 0-3.126-1.518-3.126-3.028 0-6.63 16.854-27.267 16.854-35.784 0-2.174-1.239-4.923-4.931-4.923-3.217 0-8.903 3.405-15.714 9.658l.763.943c4.168-3.88 7.188-5.399 9.182-5.399 1.6 0 2.273.853 2.273 2.371 0 7.287-16.953 27.268-16.953 35.12 0 3.791 3.225 6.154 6.442 6.154 4.825 0 11.832-5.588 19.685-14.006 3.979-4.267 8.246-9.28 12.407-14.68-4.735 8.525-8.715 17.232-8.715 23.098 0 2.273 1.042 5.588 5.12 5.588 2.84 0 8.518-3.315 15.238-9.658l-.763-.943c-3.881 3.594-6.72 5.3-8.706 5.3-1.707 0-2.552-1.041-2.552-2.838 0-3.217 2.175-8.994 6.245-16.756 2.141-4.062 4.488-8.124 6.826-11.997z" fill="#C83E7E"/></svg>