<svg width="255" height="45" fill="none" xmlns="http://www.w3.org/2000/svg"><path d="M69.359 39.285c4.889-4.887 7.96-14.85 2.729-19.547-4.016-3.712-8.936-2.273-12.725 1.516-4.81 4.81-7.844 14.053-2.807 19.092 4.055 4.053 9.13 2.614 12.803-1.061zM54.287 20.496c5.91-5.91 14.736-5.265 19.922-.076 4.701 4.697 7.01 12.766.265 19.509-6.472 6.477-15.376 4.545-19.844.075-4.81-4.81-6.932-12.917-.343-19.508zm103.639 21.058l-.486-6.482a91.973 91.973 0 00-.118-1.477l.604 1.37c.73 1.559 2.936 5.961 7.339 7.56 1.116.404 2.315.623 3.59.637 3.322 0 5.788-1.982 5.788-4.982 0-3.857-3.758-5.09-7.876-6.429-5.092-1.607-8.732-3-8.732-7.874 0-4.233 3.531-7.5 9.747-7.5 3.481 0 6.643.75 8.303 1.446l.218 5.464c.017.5.042 1 .068 1.502l-.604-1.395c-1.762-4.161-5.41-6.321-8.95-6.321-3.64 0-5.997 1.768-5.997 4.5 0 3.375 3.422 4.767 7.658 6.16 4.068 1.34 9 2.572 9 7.928 0 4.501-3.372 8.305-9.805 8.358-4.287 0-7.977-1.285-9.747-2.465zm42.643-2.269c4.886-4.886 7.957-14.848 2.727-19.546-4.017-3.712-8.937-2.272-12.731 1.516-4.808 4.811-7.836 14.054-2.795 19.091 4.051 4.053 9.126 2.614 12.799-1.06zM185.49 20.497c5.91-5.91 14.735-5.265 19.922-.076 4.697 4.697 7.011 12.766.267 19.509-6.477 6.477-15.38 4.545-19.845.075-4.817-4.81-6.933-12.917-.344-19.508zm-50.81 23.605l6.319-4.604a1.618 1.618 0 01-1.616-.21c-.629-.493-.604-1.257-.604-1.334V26.736a21.1 21.1 0 00-.082-1.84 25.332 25.332 0 00-.196-1.76v.004-.003l-.147-.713c-.571-2.48-1.649-3.978-2.923-4.846-1.477-1.004-3.053-1.058-3.845-1.07-6.074-.097-11.388 8.184-11.772 8.792-.008-1.716 0-3.45.008-5.2l.049-3.879c-2.106 1.535-4.212 3.07-6.31 4.605a1.603 1.603 0 011.608.21c.375.296.522.687.579.971v1.205c.009 5.666.017 11.332.017 17a313.243 313.243 0 01-.049 3.877l6.319-4.604a1.607 1.607 0 01-1.609-.21c-.636-.493-.612-1.257-.612-1.335V26.439a36.623 36.623 0 012.604-3.313c1.388-1.577 3.764-3.962 5.96-4.283.122-.02.237-.027.343-.031 1.706-.067 2.971.75 3.298.984 1.527 1.072 2.71 3.18 2.71 7.052v13.376c-.008 1.293-.032 2.585-.049 3.879zm119.477-4.339a1.525 1.525 0 01-1.523-.2 1.507 1.507 0 01-.523-.839V3.706L252.164 0c-2.02 1.467-4.03 2.934-6.041 4.4a1.542 1.542 0 011.541.202c.603.47.585 1.2.576 1.274v34.922c-.009 1.102-.027 2.203-.035 3.305l5.952-4.34zm-158.949 3.48a12.246 12.246 0 01-.383-.013 7.793 7.793 0 01-.136-.01l-.08-.006a11.785 11.785 0 01-.342-.027l-.168-.019-.064-.008c-.103-.013-.215-.025-.318-.041-.064-.01-.128-.021-.2-.031l-.04-.008a8.48 8.48 0 01-.31-.055c-.08-.014-.152-.03-.24-.048a12.854 12.854 0 01-.542-.128c-.096-.026-.2-.053-.295-.081l-.24-.07c-.103-.031-.19-.063-.294-.096l-.232-.08c-.095-.035-.191-.072-.295-.109l-.024-.01c-.063-.026-.135-.052-.199-.08-.096-.04-.191-.081-.287-.124l-.048-.02-.175-.077a1.654 1.654 0 00-.104-.051l.032.002.032.002a6.005 6.005 0 00.845-.018l.08-.008c.191-.02.375-.046.558-.08.096-.018.183-.04.28-.061l.055-.016a7 7 0 00.502-.147l.072-.025a6.84 6.84 0 00.781-.339l.072-.042a6.17 6.17 0 00.439-.258l.072-.047a5.91 5.91 0 00.677-.527l.144-.132.12-.11a6.088 6.088 0 001.363-2.04l.072.013c.064.01.127.021.191.03.088.011.168.02.255.028l.16.016a3.761 3.761 0 00.447.032l.167.008.191.006c.08.001.16 0 .247-.003l.168-.003a4.023 4.023 0 00.431-.023l.16-.014.198-.016c.08-.01.16-.02.24-.033l.167-.023a5.05 5.05 0 00.192-.03c.071-.012.151-.029.23-.045l.168-.035c.064-.012.12-.024.192-.04.071-.017.151-.039.223-.06l.167-.045c.064-.016.12-.033.184-.05.071-.022.143-.047.215-.073l.168-.055c.063-.02.127-.041.183-.063.072-.028.151-.058.223-.088l.16-.066c.055-.023.119-.047.175-.071.072-.033.144-.067.215-.102l.16-.075.167-.083c.072-.037.136-.077.208-.116l.151-.083c.056-.03.112-.061.168-.095a2.81 2.81 0 00.207-.131l.151-.098c.048-.031.104-.063.152-.097.072-.05.143-.106.223-.16l.144-.105c.04-.03.087-.061.119-.094a4.57 4.57 0 00.279-.225l.096-.085a.455.455 0 00.096-.08 9.265 9.265 0 00.765-.747l.096-.109c.064-.076.136-.152.199-.23l.104-.128c.056-.074.112-.15.176-.226l.095-.128c.064-.082.12-.166.176-.25l.079-.11c.08-.122.152-.244.232-.367l.016-.03c.071-.115.135-.23.199-.348l.064-.123a4.31 4.31 0 00.135-.26l.072-.145c.032-.085.08-.17.112-.255l.064-.142c.039-.094.071-.19.111-.284l.048-.115c.04-.133.088-.269.136-.404l.015-.045c.032-.121.072-.242.096-.364l.04-.13c.024-.095.048-.19.064-.286l.04-.146.048-.284.024-.137c.023-.107.031-.213.047-.319l.016-.102c.016-.142.032-.285.04-.422v-.051c.008-.065.008-.129.016-.193v.013l.048.326.024.23c.016.104.024.21.032.314.008.08.016.158.016.236.008.105.016.208.016.313.008.078.008.155.008.234v.545c0 .12-.008.238-.016.356l-.016.188a6.02 6.02 0 01-.048.535l-.016.14c-.016.132-.04.265-.056.399l-.024.13-.016.08c-.016.109-.04.218-.056.327-.015.058-.031.117-.039.176l-.016.05a2.17 2.17 0 01-.072.31c-.016.076-.04.15-.056.227-.032.102-.056.205-.088.306l-.071.222c-.032.105-.064.21-.104.312l-.024.063a1.105 1.105 0 01-.056.147c-.04.114-.088.227-.127.34l-.072.172c-.072.17-.152.337-.223.5l-.04.077c-.064.141-.144.283-.216.422-.016.037-.04.074-.063.11l-.032.064c-.056.105-.12.21-.176.315l-.095.145-.024.046c-.064.096-.12.194-.184.288-.048.064-.087.129-.135.194l-.192.278c-.048.063-.087.126-.143.187a3.16 3.16 0 01-.216.28l-.023.03a6.845 6.845 0 01-.367.437l-.128.143a7.348 7.348 0 01-.407.424 12.316 12.316 0 01-8.3 3.617c-.192.007-.383.01-.567.007-.04 0-.072 0-.104-.002l-.08-.003zm-7.344-11.197c.199-.201.422-.383.653-.544a9.858 9.858 0 002.416 3.949c.056.056.112.11.168.168.064.057.128.116.207.184a9.761 9.761 0 003.573 2.06 4.56 4.56 0 01-.543.657 4.584 4.584 0 01-6.474 0 4.58 4.58 0 010-6.474zm3.532 2.63c-.056-.055-.104-.115-.16-.179a8.253 8.253 0 01-1.842-3.46c0-.002.008-.004.008-.005.04-.015.072-.028.112-.041l.104-.037.096-.033.111-.031.104-.03c.032-.009.064-.018.103-.027.032-.009.072-.015.104-.022l.112-.023.096-.019.111-.015.112-.014c.032-.005.064-.01.103-.013.032-.003.072-.006.104-.007l.112-.007c.04-.002.064-.005.103-.005h.112l.104.002c.04 0 .071 0 .103.002.032 0 .072.005.112.008l.112.009a1.819 1.819 0 01.215.025l.104.017c.031.005.063.008.095.014.04.007.08.016.12.026l.103.024c.032.007.064.013.088.02.04.01.08.023.12.035l.112.033c.023.008.055.015.08.024.04.014.079.03.119.045l.103.04c.024.009.056.019.08.029.04.017.08.038.12.057l.112.048c.016.01.04.02.063.031.048.025.096.052.144.08l.143.077c.064.039.128.081.192.127l.08.051c.087.063.183.13.263.2l.111.084c.016.022.048.044.072.069.112.1.223.211.335.337.008.012.024.025.032.037l.112.134c.071.087.135.174.199.265l.064.097c.04.06.08.118.12.18a.174.174 0 00.031.053l.048.1c.032.043.048.087.072.132.016.02.024.042.032.063l.047.1c.016.043.04.087.056.13.008.024.024.049.032.073l.04.111a9.3 9.3 0 01.048.12l.024.084.024.096a.76.76 0 01.04.128l.024.086.023.115.024.112c.008.03.008.059.016.088l.016.121c.008.037.008.072.016.108 0 .033.008.067.008.1l.008.095c0 .041.008.084.008.126v.095l.008.105v.121c0 .031-.008.063-.008.093l-.008.113c0 .04 0 .077-.008.115 0 .034-.008.068-.008.103l-.016.108c0 .036-.008.073-.016.11-.008.033-.008.066-.016.098l-.023.099-.024.12a13.42 13.42 0 01-.024.1l-.032.104c-.016.037-.016.074-.032.11-.008.032-.024.065-.032.098l-.032.093-.048.116v.012a8.18 8.18 0 01-3.46-1.837 9.402 9.402 0 01-.343-.32c-.048-.05-.096-.101-.152-.156zm11.762.158c-.12.114-.231.224-.351.33l-.072.059-.103.089a8.386 8.386 0 01-.192.159l-.095.072-.128.096c-.056.04-.112.078-.159.116-.04.026-.08.05-.112.075l-.144.091c-.048.032-.095.065-.143.094-.04.025-.088.048-.128.071l-.135.08c-.056.03-.096.058-.152.086-.04.023-.088.045-.135.066l-.144.075-.143.07a3.02 3.02 0 01-.144.064l-.144.062c-.047.021-.103.043-.151.062-.048.02-.096.037-.144.053l-.143.054c-.056.019-.104.038-.152.055a6.095 6.095 0 01-.16.046l-.143.044a2.039 2.039 0 01-.16.046c-.047.014-.095.025-.143.037l-.151.036-.16.037-.151.028-.152.026c-.056.01-.111.021-.167.03a4.325 4.325 0 01-.152.019l-.143.018c-.056.007-.112.015-.176.02l-.151.01-.144.009c-.055.004-.12.008-.183.01-.048.002-.096.002-.152.002h-.327a4.798 4.798 0 01-.151-.008l-.128-.007c-.071-.004-.135-.006-.199-.012l-.024-.002a6.18 6.18 0 00-1.308-5.367l-.239-.279v.005c-.04-.044-.088-.087-.127-.13-.04-.045-.088-.088-.128-.127l.008-.009-.287-.236a6.192 6.192 0 00-5.367-1.305v-.025c-.008-.059-.008-.119-.016-.177l-.008-.145v-.635c0-.055 0-.11.008-.165l.008-.153c0-.053.008-.106.008-.157l.024-.167.016-.153a.98.98 0 00.016-.153c.008-.053.024-.107.032-.16l.024-.146a1.16 1.16 0 00.032-.162c.008-.053.024-.106.04-.159l.031-.149c.016-.05.024-.102.04-.152.016-.052.032-.104.04-.154l.048-.147.048-.153c.016-.052.04-.103.056-.155l.056-.148a8.76 8.76 0 01.047-.14c.024-.051.048-.1.064-.148l.064-.154c.024-.045.04-.09.064-.135a1.47 1.47 0 01.08-.165l.063-.13a1.09 1.09 0 00.064-.128c.032-.054.064-.107.088-.16l.08-.13a8.23 8.23 0 01.071-.123c.032-.054.072-.107.104-.158l.08-.125c.024-.039.056-.077.072-.115.047-.058.087-.114.127-.17l.096-.125c.016-.03.04-.06.064-.088.056-.067.111-.133.167-.197l.088-.105a7.503 7.503 0 01.383-.416 8.143 8.143 0 015.805-2.4 8.16 8.16 0 015.805 2.4c3.198 3.2 3.198 8.407 0 11.607zm-18.827 1.293v.063l-.048-.105c-.032-.06-.056-.12-.08-.179l-.024-.047-.12-.282c-.023-.068-.055-.137-.079-.206l-.016-.027c-.032-.094-.072-.189-.104-.285-.023-.078-.055-.158-.08-.236l-.095-.29-.072-.24c-.024-.097-.056-.196-.08-.294-.023-.08-.04-.16-.063-.241-.016-.1-.04-.201-.064-.302l-.048-.241c-.024-.103-.04-.207-.056-.31l-.008-.066c-.008-.057-.024-.115-.032-.172a4.335 4.335 0 01-.04-.323l-.007-.067a1.144 1.144 0 01-.016-.163 4.94 4.94 0 01-.032-.342l-.008-.077c0-.046-.008-.093-.008-.14 0-.12-.008-.238-.008-.38l-.008-.182a12.35 12.35 0 013.62-8.873c.144-.138.287-.272.43-.402l.136-.126c.104-.086.2-.172.295-.255l.144-.108.032-.032c.095-.073.183-.146.279-.217.064-.046.12-.09.191-.138.088-.067.184-.132.28-.197a1.73 1.73 0 01.19-.13 15.4 15.4 0 01.288-.184l.04-.023a6.707 6.707 0 01.47-.273l.056-.035c.04-.02.072-.041.112-.062.143-.074.279-.145.422-.213l.08-.04c.167-.078.335-.152.494-.224.04-.015.08-.029.112-.044l.064-.025c.111-.047.231-.092.343-.134.047-.02.103-.039.16-.057l.047-.018c.104-.036.207-.071.311-.105l.223-.068c.104-.032.2-.06.303-.088.08-.02.152-.042.231-.06.104-.026.208-.05.311-.073l.032-.008.192-.043c.111-.022.215-.041.327-.06l.08-.015.135-.023c.128-.021.255-.038.39-.055l.144-.02a13.576 13.576 0 01.646-.055l.088-.004c.112-.006.231-.012.343-.015l.175-.003h.216a10.6 10.6 0 011.26.07c.08.007.151.015.223.025.111.013.215.03.319.045l.024.003c-.064.004-.128.007-.2.013l-.047.002c-.136.011-.28.025-.423.041l-.112.016a7.386 7.386 0 00-.303.045l-.151.026c-.088.016-.184.034-.271.052l-.152.034c-.096.02-.183.044-.28.067l-.135.035a7.26 7.26 0 00-.366.107l-.04.012a9.1 9.1 0 00-.407.138l-.12.045c-.095.036-.183.073-.279.11l-.143.063c-.088.037-.168.075-.255.115l-.144.068a4.85 4.85 0 00-.255.133l-.128.067a7.28 7.28 0 00-.35.2l-.024.014a7.055 7.055 0 00-.367.234l-.112.076c-.088.058-.167.117-.255.177l-.128.096c-.072.058-.151.117-.239.188l-.112.094c-.08.064-.16.13-.23.197l-.105.096a7.656 7.656 0 00-.327.31 8.15 8.15 0 00-.502.547l-.08.092a4.898 4.898 0 00-.326.41l-.104.144a3.155 3.155 0 00-.16.22c-.032.047-.063.096-.095.145l-.096.15a2.8 2.8 0 00-.136.215c-.031.05-.055.104-.087.156l-.088.159-.12.212c-.024.056-.055.112-.08.17l-.08.163c-.031.069-.07.137-.095.209a.788.788 0 00-.072.173l-.063.164c-.032.072-.064.144-.088.218l-.072.187-.048.153c-.032.076-.055.152-.08.227l-.047.192-.048.158c-.016.077-.04.154-.056.23a1.641 1.641 0 00-.04.191l-.032.158c-.016.08-.04.159-.047.239-.017.062-.017.125-.032.188l-.024.178c-.008.075-.024.152-.032.229-.008.06-.008.123-.016.185l-.008.17-.024.247c0 .063 0 .126-.008.19v.17c0 .082-.008.163 0 .245 0 .066 0 .132.008.198v.15c.008.086.008.172.016.26l.024.192.008.164c.008.084.016.169.032.253.008.064.023.13.031.195l.008.07a6.182 6.182 0 00-2.033 1.359c-.04.039-.072.08-.112.12l-.135.145a6.67 6.67 0 00-.526.678l-.056.094a4.655 4.655 0 00-.247.42l-.048.075a6.5 6.5 0 00-.335.778l-.032.085c-.048.161-.104.324-.144.503l-.008.038a2.185 2.185 0 00-.055.255l-.008.031c-.032.176-.064.36-.08.551l-.008.079a6.26 6.26 0 00-.024.558c0 .097 0 .194.008.29zm21.65-15.728c-5.47-5.471-14.37-5.47-19.84 0-5.175 5.177-5.486 13.563-.694 19.093l.28-.244-.28.249a13.837 13.837 0 001.443 1.442 13.953 13.953 0 009.163 3.397c3.604 0 7.217-1.376 9.928-4.094a13.935 13.935 0 004.107-9.922c0-3.752-1.46-7.276-4.107-9.921zM40.005 41.25c-1.01 0-1.54-.533-1.54-1.438 0-3.729 9.421-15.234 9.421-20.187 0-1.437-.903-2.932-2.657-2.932-4.16 0-11.882 7.033-18.86 16.195a62.707 62.707 0 001.655-3.09c3.462-6.87 4.1-8.788 4.1-10.173 0-1.437-.85-2.932-2.665-2.932-2.558 0-6.977 2.932-11.715 7.512-2.612 2.558-5.224 5.54-7.722 8.842 2.817-5.486 5.588-11.451 5.588-13.582 0-1.224-.69-2.772-2.718-2.772-1.807 0-5.003 1.92-8.89 5.435l.424.533c2.4-2.184 4.1-3.09 5.217-3.09.91 0 1.389.534 1.389 1.385 0 2.09-3.713 9.35-7.061 15.43v-.003C2.65 38.721 1.32 41.058 0 43.396h4.366l2.118-3.79c.387-.676.805-1.412 1.245-2.191 3.144-4.688 6.818-9.267 10.44-12.677 3.41-3.195 6.074-5.273 7.934-5.273 1.01 0 1.39.64 1.39 1.438 0 1.225-1.124 3.782-3.41 8.309l-4.069 7.566c-.85 1.574-1.693 3.15-2.536 4.725l-.698 1.291v.01l-.32.592h4.359c.023-.055.053-.11.083-.164.008-.022.023-.041.038-.065.038-.088.084-.173.122-.261l1.913-3.764c.327-.618.645-1.212.942-1.78 6.18-9.002 14.6-17.897 17.956-17.897.957 0 1.382.587 1.382 1.438.053 3.782-9.483 14.701-9.483 20.188 0 1.277.698 3.088 2.984 3.088 1.602 0 4.692-1.864 8.58-5.432l-.426-.533c-2.186 2.024-3.842 3.036-4.905 3.036zm201.848-18.349l3.407-5.483h-4.586l-2.985 4.946c-3.495 4.885-7.35 9.605-10.678 13.094-3.354 3.509-5.89 5.559-7.721 5.559-1.347 0-1.778-.864-1.778-1.726 0-3.778 9.605-15.543 9.605-20.4 0-1.24-.705-2.805-2.809-2.805-1.831 0-5.071 1.943-8.962 5.504l.432.54c2.377-2.213 4.102-3.077 5.238-3.077.915 0 1.294.486 1.294 1.349 0 4.156-9.658 15.542-9.658 20.022 0 2.158 1.831 3.507 3.671 3.507 2.747 0 6.744-3.183 11.225-7.987 2.262-2.428 4.692-5.288 7.069-8.365-2.703 4.858-4.965 9.822-4.965 13.169 0 1.295.59 3.183 2.914 3.183 1.62 0 4.851-1.889 8.689-5.504l-.432-.54c-2.209 2.051-3.829 3.023-4.965 3.023-.977 0-1.461-.594-1.461-1.62 0-1.834 1.241-5.127 3.565-9.551 1.215-2.316 2.553-4.629 3.891-6.838z" fill="#828860"/></svg>