<svg width="372" height="410" fill="none" xmlns="http://www.w3.org/2000/svg"><path d="M106 299a3 3 0 100-6 3 3 0 000 6zm58.5-213a1.5 1.5 0 100 3 1.5 1.5 0 000-3z" fill="#C83E7E"/><path d="M372 .074C294.48-.93 188.224 10.728 163.833 89.572c-7.293 24.151-5.247 49.453-4.898 74.214 1.416 36.942-1.707 76.63-26.68 107.511-24.246 30.926-63.098 49.488-102.26 61.18-26.37 7.769-53.691 12.773-81.254 15.52-.369.034-.698-.201-.737-.532-.039-.332.223-.628.591-.663 27.476-2.685 54.738-7.629 81.03-15.328 38.979-11.561 77.685-29.94 101.873-60.656 24.935-30.734 28.077-70.204 26.758-107.032-.291-24.787-2.279-50.142 5.082-74.345C187.962 10.493 294.277-1.077 372 .074z" fill="#C83E7E"/><path d="M329 36c-62.128 6.857-152.326 19.634-187.156 77.359-1.22 1.997-2.843 5.532-3.937 7.67-.996 2.2-1.91 4.736-2.843 6.981-1.462 4.435-2.744 8.915-3.65 13.492-.269 1.679-.816 4.789-1.049 6.371-.125 1.237-.556 5.098-.69 6.415-1.552 21.533.753 43.155-.619 64.715C125.63 296.257 67.6 356.81 8.897 401.944c-3.345 2.545-7.353 5.523-10.456 7.873a.898.898 0 01-1.255-.168.869.869 0 01.17-1.237c4.143-3.145 9.936-7.334 13.9-10.506 49.529-38.631 97.649-86.743 112.527-149.17 5.38-22.443 4.986-45.673 4.511-68.594-.162-11.442-.18-23.186 1.632-34.513 4.582-30.361 22.15-52.928 48.255-68.904 44.991-27.86 99.004-35 150.81-40.725H329z" fill="#C83E7E"/></svg>