<svg width="486" height="209" fill="none" xmlns="http://www.w3.org/2000/svg"><path d="M144.287 199.587l-1.691-22.703-.414-5.177c.701 1.59 1.403 3.192 2.105 4.795 2.565 5.456 10.279 20.884 25.717 26.481 3.916 1.424 8.117 2.187 12.574 2.238 11.637 0 20.272-6.944 20.272-17.45 0-13.52-13.138-17.832-27.593-22.525-17.832-5.634-30.595-10.518-30.595-27.6 0-14.83 12.387-26.277 34.163-26.277 12.201 0 23.275 2.633 29.092 5.062l.752 19.155c.08 1.755.162 3.51.243 5.253l-2.12-4.884c-6.168-14.576-18.931-22.144-31.347-22.144-12.763 0-21.024 6.194-21.024 15.772 0 11.815 12.013 16.699 26.843 21.583 14.265 4.694 31.534 9.005 31.534 27.778 0 15.771-11.825 29.088-34.35 29.279-15.016 0-27.967-4.503-34.161-8.636zm96.685-119.266c17.043-17.052 27.746-51.789 9.512-68.183-14.004-12.94-31.182-7.928-44.395 5.281-16.78 16.784-27.35 49.021-9.778 66.598 14.138 14.136 31.844 9.124 44.661-3.696zm-52.587-65.535c20.612-20.614 51.396-18.37 69.5-.27 16.383 16.381 24.443 44.533.924 68.05-22.594 22.588-53.643 15.856-69.235.268-16.78-16.784-24.18-45.056-1.189-68.049zm161.914 65.536c17.045-17.053 27.747-51.79 9.513-68.183-14.005-12.94-31.182-7.929-44.394 5.28-16.78 16.784-27.352 49.022-9.778 66.598 14.137 14.137 31.844 9.124 44.659-3.695zm-52.587-65.536c20.611-20.613 51.398-18.37 69.499-.269 16.384 16.38 24.444 44.533.924 68.049-22.593 22.589-53.643 15.856-69.234.269-16.78-16.784-24.178-45.057-1.189-68.049zm164.329 80.609c7.206-5.253 14.41-10.507 21.615-15.747-1.857.764-3.973.496-5.525-.724-2.147-1.688-2.085-4.302-2.074-4.57V35.971a85.296 85.296 0 00-.961-12.317v.014h-.003a88.833 88.833 0 00-.501-2.453c-1.947-8.483-5.626-13.603-9.994-16.578C459.28 1.032 453.501.965 451.443.978c-16.744.108-32.431 19.206-40.27 30.584l.031-18.294L411.375 0a20025.528 20025.528 0 01-21.615 15.747c1.856-.764 3.973-.495 5.524.724 1.289 1.019 1.775 2.359 1.961 3.324v4.128l.083 58.164-.17 13.268 21.613-15.76c-1.855.777-3.972.495-5.523-.724-2.147-1.675-2.085-4.289-2.075-4.557v-41.09a168.603 168.603 0 018.89-9.596c13.811-13.831 18.897-14.662 21.572-14.77 5.846-.227 10.171 2.574 11.305 3.365 5.2 3.672 9.271 10.882 9.271 24.137v45.767c-.058 4.423-.114 8.846-.17 13.269zM294.56 191.816c-12.817 12.818-30.523 17.83-44.66 3.699-17.574-17.575-7.003-49.816 9.777-66.6 13.214-13.213 30.391-18.225 44.396-5.28 18.234 16.388 7.532 51.129-9.513 68.181zm-52.588-65.541c-22.99 22.995-15.59 51.27 1.19 68.054 15.59 15.585 46.642 22.319 69.235-.268 23.519-23.518 15.459-51.666-.925-68.054-18.102-18.098-48.887-20.343-69.5.268zm222.645-3.875l-.026 34.22v28.374h-.03v10.259l-.164 12.793c6.944-5.066 13.887-10.119 20.831-15.185-1.788.742-3.829.486-5.323-.691-1.242-.972-1.71-2.264-1.891-3.198a3478.968 3478.968 0 01.159-89.624l-20.905 15.236c1.794-.742 3.841-.474 5.342.703 2.077 1.625 2.018 4.158 2.007 4.414v2.699zM2.32 132.24c0-4.108 3.39-7.811 7.877-7.811 2.706 0 5.001 1.34 6.131 3.906l-2.122 1.238c-.925-1.82-2.365-2.742-4.146-2.742-2.808 0-4.863 2.287-4.863 5.409 0 3.008 1.917 5.207 4.932 5.207 2.02 0 3.597-.96 4.213-2.679l2.09 1.276c-.995 2.149-3.289 3.792-6.27 3.792-4.35 0-7.841-3.425-7.841-7.596zm28.875-.101c0-3.122-2.09-5.308-4.76-5.308-2.672 0-4.763 2.186-4.763 5.308 0 3.109 2.09 5.308 4.762 5.308 2.67 0 4.761-2.199 4.761-5.308zm-12.398 0c0-4.108 3.561-7.71 7.637-7.71s7.637 3.602 7.637 7.71c0 4.108-3.56 7.697-7.637 7.697-4.076 0-7.637-3.589-7.637-7.697zm17.195 4.588l2.056-1.542c1.335 1.744 2.74 2.426 4.796 2.426 2.362 0 3.698-.821 3.698-2.224 0-1.403-1.679-2.325-4.076-2.325H40.65v-2.225h1.574c2.296 0 3.768-.821 3.768-2.098 0-1.226-1.369-2.085-3.287-2.085-1.748 0-3.118.619-4.282 1.782l-1.679-1.643c1.44-1.58 3.632-2.364 6.099-2.364 3.698 0 5.992 1.782 5.992 3.906 0 1.605-1.2 2.982-3.597 3.463v.063c2.468.24 4.145 1.681 4.145 3.602 0 2.224-2.226 4.373-6.54 4.373-2.708 0-5.173-.721-6.852-3.109zm27.265.445v-10.071h-5.72l-.138 2.945c-.24 5.067-.65 6.381-1.507 7.089v.037h7.365zm-11.542 0h.993c1.404 0 1.815-1.465 2.123-7.126l.274-5.27h10.858v12.396h2.088v6.23h-2.533v-3.904h-11.27v3.904h-2.533v-6.23zm28.637-3.832v-1.302c-.516.885-1.303 1.062-2.98 1.264-1.92.24-3.975.442-3.975 2.363 0 1.302.823 2.123 2.638 2.123 2.397 0 4.317-1.339 4.317-4.448zm-9.694 2.489c0-3.286 3.288-4.006 6.37-4.347 2.398-.266 3.287-.379 3.287-2.124 0-1.782-.959-2.628-3.116-2.628-1.952 0-3.253.707-3.906 2.047l-1.95-1.163c.958-2.06 3.288-3.185 6.198-3.185 3.528 0 5.584 1.782 5.584 5.448v9.618h-2.74v-2.528c-.789 1.883-2.535 2.869-4.967 2.869-2.945 0-4.76-1.428-4.76-4.007zm27.674-.741c0-1.201-1.028-2.161-4.144-2.161h-2.98v4.448h3.22c2.876 0 3.904-.948 3.904-2.287zm-.583-6.129c0-1.301-1.196-2.06-3.527-2.06H91.21v4.145h2.944c2.604 0 3.596-1.023 3.596-2.085zm-9.315-4.182h5.481c4.76 0 6.643 1.478 6.643 3.765 0 1.719-1.334 2.919-3.595 3.26v.064c2.842.278 4.28 1.579 4.28 3.487 0 2.439-2.329 4.145-6.952 4.145h-5.857v-14.721zm25.484 8.563v-1.302c-.514.885-1.301 1.062-2.98 1.264-1.917.24-3.972.442-3.972 2.363 0 1.302.823 2.123 2.638 2.123 2.397 0 4.314-1.339 4.314-4.448zm-9.693 2.489c0-3.286 3.288-4.006 6.371-4.347 2.397-.266 3.287-.379 3.287-2.124 0-1.782-.958-2.628-3.117-2.628-1.95 0-3.253.707-3.904 2.047l-1.951-1.163c.958-2.06 3.287-3.185 6.199-3.185 3.528 0 5.583 1.782 5.583 5.448v9.618h-2.739v-2.528c-.79 1.883-2.535 2.869-4.968 2.869-2.945 0-4.761-1.428-4.761-4.007zm23.807-4.027h2.637V127h-2.707c-2.465 0-3.63.658-3.63 2.401 0 1.82 1.575 2.401 3.7 2.401zm2.637 2.224h-2.775c-2.431 0-3.014.721-3.356 2.844l-.103.619c-.173.985-.41 1.605-.72 2.009h-2.842c.375-.644.548-1.162.753-2.287l.138-.784c.409-2.337 1.404-3.298 3.699-3.424v-.076c-1.953-.101-4.111-1.365-4.111-3.627 0-3.083 3.254-4.523 7.193-4.523h4.898v14.721h-2.774v-5.472zM2.32 156.013c0-4.112 3.39-7.812 7.876-7.812 2.707 0 5.002 1.337 6.132 3.9l-2.123 1.237c-.925-1.812-2.365-2.737-4.145-2.737-2.809 0-4.864 2.287-4.864 5.412 0 3.013 1.918 5.2 4.932 5.2 2.02 0 3.597-.962 4.213-2.675l2.09 1.275c-.995 2.15-3.288 3.8-6.268 3.8-4.35 0-7.843-3.425-7.843-7.6zm27.917 2.838c0-1.2-1.03-2.163-4.145-2.163h-2.98v4.463h3.22c2.876 0 3.905-.963 3.905-2.3zm-.584-6.125c0-1.313-1.198-2.063-3.528-2.063h-3.014v4.15h2.947c2.602 0 3.595-1.025 3.595-2.087zm-9.315-4.188h5.48c4.76 0 6.645 1.475 6.645 3.775 0 1.713-1.337 2.913-3.597 3.25v.063c2.843.275 4.28 1.575 4.28 3.5 0 2.425-2.328 4.137-6.952 4.137h-5.856v-14.725zm28.326 7.363c0-3.113-2.09-5.3-4.76-5.3-2.672 0-4.762 2.187-4.762 5.3 0 3.125 2.09 5.312 4.761 5.312 2.671 0 4.761-2.187 4.761-5.312zm-12.398 0c0-4.1 3.562-7.7 7.637-7.7 4.076 0 7.638 3.6 7.638 7.7 0 4.112-3.562 7.712-7.638 7.712-4.075 0-7.637-3.6-7.637-7.712zm19.49-7.363h.754c1.027 0 1.472-.025 1.883-.2v9.45c0 .65 0 1.238-.068 1.85.308-.512.686-1.062 1.06-1.575l6.783-9.525h2.638v14.725h-2.638v-9.237c0-.65 0-1.238.07-1.85a22.095 22.095 0 01-1.062 1.575l-6.783 9.512h-2.637v-14.725zM3.45 172.313h.754c1.027 0 1.472-.037 1.883-.2v9.45c0 .65 0 1.238-.068 1.85.308-.512.685-1.062 1.062-1.575l6.781-9.525H16.5v14.725h-2.638v-9.237c0-.663 0-1.238.069-1.85a19.005 19.005 0 01-1.061 1.562l-6.783 9.525H3.449v-14.725zm17.265 7.462c0-4.1 3.39-7.8 7.877-7.8 2.707 0 5.002 1.325 6.13 3.9l-2.122 1.238c-.925-1.813-2.364-2.75-4.145-2.75-2.808 0-4.864 2.3-4.864 5.412 0 3.025 1.919 5.213 4.933 5.213 2.02 0 3.597-.963 4.212-2.675l2.09 1.262c-.994 2.163-3.289 3.813-6.269 3.813-4.35 0-7.842-3.425-7.842-7.613zm20.963-5.137h-5.035v-2.325h12.81v2.325H44.45v12.4h-2.773v-12.4zm22.092 5.037c0-3.112-2.088-5.312-4.76-5.312-2.672 0-4.76 2.2-4.76 5.312 0 3.125 2.088 5.313 4.76 5.313 2.672 0 4.76-2.188 4.76-5.313zm-12.397 0c0-4.112 3.561-7.7 7.638-7.7 4.075 0 7.637 3.588 7.637 7.7 0 4.113-3.562 7.713-7.637 7.713-4.077 0-7.638-3.6-7.638-7.713zm31.752 0c0-3.112-2.158-5.312-4.83-5.312-2.363 0-4.727 2.2-4.727 5.312 0 3.125 2.364 5.313 4.728 5.313 2.671 0 4.829-2.188 4.829-5.313zm-12.262-7.362h.924c1.029 0 1.474-.038 1.885-.2v3.562c.855-2.1 2.774-3.7 5.343-3.7 3.665 0 6.987 3.525 6.987 7.7 0 4.188-3.322 7.713-6.987 7.713-2.57 0-4.488-1.613-5.343-3.7v10.55h-2.809v-21.925zm19.354 0h.754c1.027 0 1.472-.037 1.883-.2v9.45c0 .65 0 1.238-.068 1.85.308-.512.685-1.062 1.06-1.575l6.783-9.525h2.638v14.725h-2.638v-9.237c0-.663 0-1.238.069-1.85a19.048 19.048 0 01-1.062 1.562l-6.782 9.525h-2.637v-14.725zm18.394 0h.754c1.028 0 1.473-.037 1.884-.2v9.45c0 .65 0 1.238-.068 1.85.308-.512.685-1.062 1.062-1.575l6.781-9.525h2.637v14.725h-2.637v-9.237c0-.663 0-1.238.069-1.85a18.892 18.892 0 01-1.062 1.562l-6.782 9.525h-2.638v-14.725zm32.184-85.63c-3.562 0-5.435-1.876-5.435-5.065 0-13.119 33.178-53.615 33.178-71.049 0-5.052-3.185-10.305-9.372-10.305-14.621 0-41.803 24.75-66.362 56.992 2.25-3.94 4.125-7.504 5.814-10.881C110.8 22.201 113.05 15.447 113.05 10.569c0-5.052-2.999-10.305-9.372-10.305-8.999 0-24.556 10.305-41.241 26.426-9.186 9.005-18.37 19.497-27.182 31.129C45.19 38.509 54.94 17.511 54.94 10.006c0-4.301-2.436-9.742-9.561-9.742-6.373 0-17.62 6.754-31.305 19.123l1.5 1.876c8.436-7.692 14.434-10.881 18.37-10.881 3.188 0 4.874 1.876 4.874 4.877 0 7.357-13.056 32.898-24.83 54.299h-.017C9.312 77.785 4.657 86.013 0 94.228h15.358c2.49-4.436 4.981-8.885 7.47-13.334 1.365-2.385 2.832-4.971 4.368-7.705C38.254 56.693 51.19 40.573 63.937 28.566c11.998-11.243 21.37-18.56 27.932-18.56 3.56 0 4.872 2.252 4.872 5.066 0 4.315-3.937 13.306-11.996 29.24L70.44 70.938h-.01c-2.974 5.548-5.949 11.096-8.923 16.63l-2.443 4.556c-.006 0-.009.013-.014.027-.373.697-.744 1.393-1.116 2.077H73.26c.098-.188.196-.375.292-.576.045-.067.09-.134.132-.228.153-.308.301-.603.453-.911 2.244-4.422 4.49-8.831 6.736-13.253 1.138-2.171 2.246-4.262 3.309-6.258 21.746-31.679 51.363-62.995 63.174-62.995 3.373 0 4.873 2.063 4.873 5.065.187 13.306-33.367 51.739-33.367 71.049 0 4.502 2.436 10.867 10.498 10.867 5.622 0 16.494-6.552 30.18-19.122l-1.498-1.863c-7.687 7.116-13.498 10.68-17.248 10.68zm296.547 47.271c3.958-6.363 7.914-12.738 11.872-19.101H433.22c-3.457 5.739-6.916 11.491-10.374 17.231-12.176 17.027-25.638 33.469-37.238 45.635-11.66 12.216-20.498 19.368-26.891 19.368-4.701 0-6.206-3.016-6.206-6.019 0-13.158 33.472-54.161 33.472-71.087 0-4.326-2.445-9.773-9.776-9.773-6.396 0-17.679 6.77-31.218 19.178l1.504 1.883c8.276-7.712 14.293-10.715 18.242-10.715 3.196 0 4.512 1.693 4.512 4.696 0 14.482-33.661 54.161-33.661 69.763 0 7.521 6.395 12.23 12.788 12.23 9.59 0 23.506-11.097 39.114-27.832 7.897-8.463 16.36-18.427 24.634-29.155-9.402 16.926-17.301 34.233-17.301 45.89 0 4.517 2.069 11.097 10.155 11.097 5.642 0 16.925-6.58 30.274-19.191l-1.502-1.871c-7.712 7.14-13.352 10.525-17.302 10.525-3.385 0-5.077-2.062-5.077-5.638 0-6.388 4.326-17.867 12.411-33.291 4.248-8.068 8.916-16.124 13.562-23.823z" fill="#fff"/></svg>